%TF.GenerationSoftware,KiCad,Pcbnew,9.0.4*%
%TF.CreationDate,2026-03-13T12:35:10-04:00*%
%TF.ProjectId,Ear2Ink_PCB_Design,45617232-496e-46b5-9f50-43425f446573,rev?*%
%TF.SameCoordinates,Original*%
%TF.FileFunction,Legend,Bot*%
%TF.FilePolarity,Positive*%
%FSLAX46Y46*%
G04 Gerber Fmt 4.6, Leading zero omitted, Abs format (unit mm)*
G04 Created by KiCad (PCBNEW 9.0.4) date 2026-03-13 12:35:10*
%MOMM*%
%LPD*%
G01*
G04 APERTURE LIST*
%ADD10C,0.150000*%
%ADD11C,0.120000*%
%ADD12C,0.200000*%
G04 APERTURE END LIST*
D10*
X136854819Y-59239891D02*
X136378628Y-58906558D01*
X136854819Y-58668463D02*
X135854819Y-58668463D01*
X135854819Y-58668463D02*
X135854819Y-59049415D01*
X135854819Y-59049415D02*
X135902438Y-59144653D01*
X135902438Y-59144653D02*
X135950057Y-59192272D01*
X135950057Y-59192272D02*
X136045295Y-59239891D01*
X136045295Y-59239891D02*
X136188152Y-59239891D01*
X136188152Y-59239891D02*
X136283390Y-59192272D01*
X136283390Y-59192272D02*
X136331009Y-59144653D01*
X136331009Y-59144653D02*
X136378628Y-59049415D01*
X136378628Y-59049415D02*
X136378628Y-58668463D01*
X135950057Y-59620844D02*
X135902438Y-59668463D01*
X135902438Y-59668463D02*
X135854819Y-59763701D01*
X135854819Y-59763701D02*
X135854819Y-60001796D01*
X135854819Y-60001796D02*
X135902438Y-60097034D01*
X135902438Y-60097034D02*
X135950057Y-60144653D01*
X135950057Y-60144653D02*
X136045295Y-60192272D01*
X136045295Y-60192272D02*
X136140533Y-60192272D01*
X136140533Y-60192272D02*
X136283390Y-60144653D01*
X136283390Y-60144653D02*
X136854819Y-59573225D01*
X136854819Y-59573225D02*
X136854819Y-60192272D01*
X136854819Y-61144653D02*
X136854819Y-60573225D01*
X136854819Y-60858939D02*
X135854819Y-60858939D01*
X135854819Y-60858939D02*
X135997676Y-60763701D01*
X135997676Y-60763701D02*
X136092914Y-60668463D01*
X136092914Y-60668463D02*
X136140533Y-60573225D01*
X141609819Y-59728582D02*
X141133628Y-59395249D01*
X141609819Y-59157154D02*
X140609819Y-59157154D01*
X140609819Y-59157154D02*
X140609819Y-59538106D01*
X140609819Y-59538106D02*
X140657438Y-59633344D01*
X140657438Y-59633344D02*
X140705057Y-59680963D01*
X140705057Y-59680963D02*
X140800295Y-59728582D01*
X140800295Y-59728582D02*
X140943152Y-59728582D01*
X140943152Y-59728582D02*
X141038390Y-59680963D01*
X141038390Y-59680963D02*
X141086009Y-59633344D01*
X141086009Y-59633344D02*
X141133628Y-59538106D01*
X141133628Y-59538106D02*
X141133628Y-59157154D01*
X140609819Y-60061916D02*
X140609819Y-60680963D01*
X140609819Y-60680963D02*
X140990771Y-60347630D01*
X140990771Y-60347630D02*
X140990771Y-60490487D01*
X140990771Y-60490487D02*
X141038390Y-60585725D01*
X141038390Y-60585725D02*
X141086009Y-60633344D01*
X141086009Y-60633344D02*
X141181247Y-60680963D01*
X141181247Y-60680963D02*
X141419342Y-60680963D01*
X141419342Y-60680963D02*
X141514580Y-60633344D01*
X141514580Y-60633344D02*
X141562200Y-60585725D01*
X141562200Y-60585725D02*
X141609819Y-60490487D01*
X141609819Y-60490487D02*
X141609819Y-60204773D01*
X141609819Y-60204773D02*
X141562200Y-60109535D01*
X141562200Y-60109535D02*
X141514580Y-60061916D01*
X138415474Y-57048429D02*
X138415474Y-58048429D01*
X138415474Y-58048429D02*
X138748807Y-57334144D01*
X138748807Y-57334144D02*
X139082140Y-58048429D01*
X139082140Y-58048429D02*
X139082140Y-57048429D01*
X139558331Y-57048429D02*
X139558331Y-58048429D01*
X140129759Y-57048429D02*
X139701188Y-57619858D01*
X140129759Y-58048429D02*
X139558331Y-57477001D01*
X141082140Y-57048429D02*
X140510712Y-57048429D01*
X140796426Y-57048429D02*
X140796426Y-58048429D01*
X140796426Y-58048429D02*
X140701188Y-57905572D01*
X140701188Y-57905572D02*
X140605950Y-57810334D01*
X140605950Y-57810334D02*
X140510712Y-57762715D01*
X179929819Y-50886905D02*
X178929819Y-50886905D01*
X178929819Y-50886905D02*
X178929819Y-51125000D01*
X178929819Y-51125000D02*
X178977438Y-51267857D01*
X178977438Y-51267857D02*
X179072676Y-51363095D01*
X179072676Y-51363095D02*
X179167914Y-51410714D01*
X179167914Y-51410714D02*
X179358390Y-51458333D01*
X179358390Y-51458333D02*
X179501247Y-51458333D01*
X179501247Y-51458333D02*
X179691723Y-51410714D01*
X179691723Y-51410714D02*
X179786961Y-51363095D01*
X179786961Y-51363095D02*
X179882200Y-51267857D01*
X179882200Y-51267857D02*
X179929819Y-51125000D01*
X179929819Y-51125000D02*
X179929819Y-50886905D01*
X179929819Y-51934524D02*
X179929819Y-52125000D01*
X179929819Y-52125000D02*
X179882200Y-52220238D01*
X179882200Y-52220238D02*
X179834580Y-52267857D01*
X179834580Y-52267857D02*
X179691723Y-52363095D01*
X179691723Y-52363095D02*
X179501247Y-52410714D01*
X179501247Y-52410714D02*
X179120295Y-52410714D01*
X179120295Y-52410714D02*
X179025057Y-52363095D01*
X179025057Y-52363095D02*
X178977438Y-52315476D01*
X178977438Y-52315476D02*
X178929819Y-52220238D01*
X178929819Y-52220238D02*
X178929819Y-52029762D01*
X178929819Y-52029762D02*
X178977438Y-51934524D01*
X178977438Y-51934524D02*
X179025057Y-51886905D01*
X179025057Y-51886905D02*
X179120295Y-51839286D01*
X179120295Y-51839286D02*
X179358390Y-51839286D01*
X179358390Y-51839286D02*
X179453628Y-51886905D01*
X179453628Y-51886905D02*
X179501247Y-51934524D01*
X179501247Y-51934524D02*
X179548866Y-52029762D01*
X179548866Y-52029762D02*
X179548866Y-52220238D01*
X179548866Y-52220238D02*
X179501247Y-52315476D01*
X179501247Y-52315476D02*
X179453628Y-52363095D01*
X179453628Y-52363095D02*
X179358390Y-52410714D01*
X141837337Y-79778199D02*
X141736322Y-79205780D01*
X142241398Y-79374138D02*
X141534291Y-78667032D01*
X141534291Y-78667032D02*
X141264917Y-78936406D01*
X141264917Y-78936406D02*
X141231245Y-79037421D01*
X141231245Y-79037421D02*
X141231245Y-79104764D01*
X141231245Y-79104764D02*
X141264917Y-79205780D01*
X141264917Y-79205780D02*
X141365932Y-79306795D01*
X141365932Y-79306795D02*
X141466948Y-79340467D01*
X141466948Y-79340467D02*
X141534291Y-79340467D01*
X141534291Y-79340467D02*
X141635306Y-79306795D01*
X141635306Y-79306795D02*
X141904680Y-79037421D01*
X140928200Y-79407810D02*
X140860856Y-79407810D01*
X140860856Y-79407810D02*
X140759841Y-79441482D01*
X140759841Y-79441482D02*
X140591482Y-79609841D01*
X140591482Y-79609841D02*
X140557810Y-79710856D01*
X140557810Y-79710856D02*
X140557810Y-79778199D01*
X140557810Y-79778199D02*
X140591482Y-79879215D01*
X140591482Y-79879215D02*
X140658826Y-79946558D01*
X140658826Y-79946558D02*
X140793513Y-80013902D01*
X140793513Y-80013902D02*
X141601635Y-80013902D01*
X141601635Y-80013902D02*
X141163902Y-80451634D01*
X140254764Y-80081245D02*
X140187421Y-80081245D01*
X140187421Y-80081245D02*
X140086406Y-80114917D01*
X140086406Y-80114917D02*
X139918047Y-80283276D01*
X139918047Y-80283276D02*
X139884375Y-80384291D01*
X139884375Y-80384291D02*
X139884375Y-80451635D01*
X139884375Y-80451635D02*
X139918047Y-80552650D01*
X139918047Y-80552650D02*
X139985390Y-80619993D01*
X139985390Y-80619993D02*
X140120077Y-80687337D01*
X140120077Y-80687337D02*
X140928199Y-80687337D01*
X140928199Y-80687337D02*
X140490467Y-81125070D01*
X177539285Y-64629819D02*
X177539285Y-63629819D01*
X177539285Y-63629819D02*
X177301190Y-63629819D01*
X177301190Y-63629819D02*
X177158333Y-63677438D01*
X177158333Y-63677438D02*
X177063095Y-63772676D01*
X177063095Y-63772676D02*
X177015476Y-63867914D01*
X177015476Y-63867914D02*
X176967857Y-64058390D01*
X176967857Y-64058390D02*
X176967857Y-64201247D01*
X176967857Y-64201247D02*
X177015476Y-64391723D01*
X177015476Y-64391723D02*
X177063095Y-64486961D01*
X177063095Y-64486961D02*
X177158333Y-64582200D01*
X177158333Y-64582200D02*
X177301190Y-64629819D01*
X177301190Y-64629819D02*
X177539285Y-64629819D01*
X176015476Y-64629819D02*
X176586904Y-64629819D01*
X176301190Y-64629819D02*
X176301190Y-63629819D01*
X176301190Y-63629819D02*
X176396428Y-63772676D01*
X176396428Y-63772676D02*
X176491666Y-63867914D01*
X176491666Y-63867914D02*
X176586904Y-63915533D01*
X175682142Y-63629819D02*
X175063095Y-63629819D01*
X175063095Y-63629819D02*
X175396428Y-64010771D01*
X175396428Y-64010771D02*
X175253571Y-64010771D01*
X175253571Y-64010771D02*
X175158333Y-64058390D01*
X175158333Y-64058390D02*
X175110714Y-64106009D01*
X175110714Y-64106009D02*
X175063095Y-64201247D01*
X175063095Y-64201247D02*
X175063095Y-64439342D01*
X175063095Y-64439342D02*
X175110714Y-64534580D01*
X175110714Y-64534580D02*
X175158333Y-64582200D01*
X175158333Y-64582200D02*
X175253571Y-64629819D01*
X175253571Y-64629819D02*
X175539285Y-64629819D01*
X175539285Y-64629819D02*
X175634523Y-64582200D01*
X175634523Y-64582200D02*
X175682142Y-64534580D01*
X181174285Y-69334819D02*
X181174285Y-68334819D01*
X181174285Y-68334819D02*
X180936190Y-68334819D01*
X180936190Y-68334819D02*
X180793333Y-68382438D01*
X180793333Y-68382438D02*
X180698095Y-68477676D01*
X180698095Y-68477676D02*
X180650476Y-68572914D01*
X180650476Y-68572914D02*
X180602857Y-68763390D01*
X180602857Y-68763390D02*
X180602857Y-68906247D01*
X180602857Y-68906247D02*
X180650476Y-69096723D01*
X180650476Y-69096723D02*
X180698095Y-69191961D01*
X180698095Y-69191961D02*
X180793333Y-69287200D01*
X180793333Y-69287200D02*
X180936190Y-69334819D01*
X180936190Y-69334819D02*
X181174285Y-69334819D01*
X179650476Y-69334819D02*
X180221904Y-69334819D01*
X179936190Y-69334819D02*
X179936190Y-68334819D01*
X179936190Y-68334819D02*
X180031428Y-68477676D01*
X180031428Y-68477676D02*
X180126666Y-68572914D01*
X180126666Y-68572914D02*
X180221904Y-68620533D01*
X178793333Y-68668152D02*
X178793333Y-69334819D01*
X179031428Y-68287200D02*
X179269523Y-69001485D01*
X179269523Y-69001485D02*
X178650476Y-69001485D01*
X137242857Y-56909580D02*
X137290476Y-56957200D01*
X137290476Y-56957200D02*
X137433333Y-57004819D01*
X137433333Y-57004819D02*
X137528571Y-57004819D01*
X137528571Y-57004819D02*
X137671428Y-56957200D01*
X137671428Y-56957200D02*
X137766666Y-56861961D01*
X137766666Y-56861961D02*
X137814285Y-56766723D01*
X137814285Y-56766723D02*
X137861904Y-56576247D01*
X137861904Y-56576247D02*
X137861904Y-56433390D01*
X137861904Y-56433390D02*
X137814285Y-56242914D01*
X137814285Y-56242914D02*
X137766666Y-56147676D01*
X137766666Y-56147676D02*
X137671428Y-56052438D01*
X137671428Y-56052438D02*
X137528571Y-56004819D01*
X137528571Y-56004819D02*
X137433333Y-56004819D01*
X137433333Y-56004819D02*
X137290476Y-56052438D01*
X137290476Y-56052438D02*
X137242857Y-56100057D01*
X136290476Y-57004819D02*
X136861904Y-57004819D01*
X136576190Y-57004819D02*
X136576190Y-56004819D01*
X136576190Y-56004819D02*
X136671428Y-56147676D01*
X136671428Y-56147676D02*
X136766666Y-56242914D01*
X136766666Y-56242914D02*
X136861904Y-56290533D01*
X135433333Y-56338152D02*
X135433333Y-57004819D01*
X135671428Y-55957200D02*
X135909523Y-56671485D01*
X135909523Y-56671485D02*
X135290476Y-56671485D01*
X133359580Y-53407142D02*
X133407200Y-53359523D01*
X133407200Y-53359523D02*
X133454819Y-53216666D01*
X133454819Y-53216666D02*
X133454819Y-53121428D01*
X133454819Y-53121428D02*
X133407200Y-52978571D01*
X133407200Y-52978571D02*
X133311961Y-52883333D01*
X133311961Y-52883333D02*
X133216723Y-52835714D01*
X133216723Y-52835714D02*
X133026247Y-52788095D01*
X133026247Y-52788095D02*
X132883390Y-52788095D01*
X132883390Y-52788095D02*
X132692914Y-52835714D01*
X132692914Y-52835714D02*
X132597676Y-52883333D01*
X132597676Y-52883333D02*
X132502438Y-52978571D01*
X132502438Y-52978571D02*
X132454819Y-53121428D01*
X132454819Y-53121428D02*
X132454819Y-53216666D01*
X132454819Y-53216666D02*
X132502438Y-53359523D01*
X132502438Y-53359523D02*
X132550057Y-53407142D01*
X133454819Y-54359523D02*
X133454819Y-53788095D01*
X133454819Y-54073809D02*
X132454819Y-54073809D01*
X132454819Y-54073809D02*
X132597676Y-53978571D01*
X132597676Y-53978571D02*
X132692914Y-53883333D01*
X132692914Y-53883333D02*
X132740533Y-53788095D01*
X132454819Y-55264285D02*
X132454819Y-54788095D01*
X132454819Y-54788095D02*
X132931009Y-54740476D01*
X132931009Y-54740476D02*
X132883390Y-54788095D01*
X132883390Y-54788095D02*
X132835771Y-54883333D01*
X132835771Y-54883333D02*
X132835771Y-55121428D01*
X132835771Y-55121428D02*
X132883390Y-55216666D01*
X132883390Y-55216666D02*
X132931009Y-55264285D01*
X132931009Y-55264285D02*
X133026247Y-55311904D01*
X133026247Y-55311904D02*
X133264342Y-55311904D01*
X133264342Y-55311904D02*
X133359580Y-55264285D01*
X133359580Y-55264285D02*
X133407200Y-55216666D01*
X133407200Y-55216666D02*
X133454819Y-55121428D01*
X133454819Y-55121428D02*
X133454819Y-54883333D01*
X133454819Y-54883333D02*
X133407200Y-54788095D01*
X133407200Y-54788095D02*
X133359580Y-54740476D01*
X145228333Y-91364819D02*
X145228333Y-92079104D01*
X145228333Y-92079104D02*
X145275952Y-92221961D01*
X145275952Y-92221961D02*
X145371190Y-92317200D01*
X145371190Y-92317200D02*
X145514047Y-92364819D01*
X145514047Y-92364819D02*
X145609285Y-92364819D01*
X144323571Y-91698152D02*
X144323571Y-92364819D01*
X144561666Y-91317200D02*
X144799761Y-92031485D01*
X144799761Y-92031485D02*
X144180714Y-92031485D01*
X179434819Y-43726905D02*
X178434819Y-43726905D01*
X178434819Y-43726905D02*
X178434819Y-43965000D01*
X178434819Y-43965000D02*
X178482438Y-44107857D01*
X178482438Y-44107857D02*
X178577676Y-44203095D01*
X178577676Y-44203095D02*
X178672914Y-44250714D01*
X178672914Y-44250714D02*
X178863390Y-44298333D01*
X178863390Y-44298333D02*
X179006247Y-44298333D01*
X179006247Y-44298333D02*
X179196723Y-44250714D01*
X179196723Y-44250714D02*
X179291961Y-44203095D01*
X179291961Y-44203095D02*
X179387200Y-44107857D01*
X179387200Y-44107857D02*
X179434819Y-43965000D01*
X179434819Y-43965000D02*
X179434819Y-43726905D01*
X178434819Y-44631667D02*
X178434819Y-45298333D01*
X178434819Y-45298333D02*
X179434819Y-44869762D01*
X144029855Y-54043068D02*
X144363188Y-53566877D01*
X144601283Y-54043068D02*
X144601283Y-53043068D01*
X144601283Y-53043068D02*
X144220331Y-53043068D01*
X144220331Y-53043068D02*
X144125093Y-53090687D01*
X144125093Y-53090687D02*
X144077474Y-53138306D01*
X144077474Y-53138306D02*
X144029855Y-53233544D01*
X144029855Y-53233544D02*
X144029855Y-53376401D01*
X144029855Y-53376401D02*
X144077474Y-53471639D01*
X144077474Y-53471639D02*
X144125093Y-53519258D01*
X144125093Y-53519258D02*
X144220331Y-53566877D01*
X144220331Y-53566877D02*
X144601283Y-53566877D01*
X143648902Y-53138306D02*
X143601283Y-53090687D01*
X143601283Y-53090687D02*
X143506045Y-53043068D01*
X143506045Y-53043068D02*
X143267950Y-53043068D01*
X143267950Y-53043068D02*
X143172712Y-53090687D01*
X143172712Y-53090687D02*
X143125093Y-53138306D01*
X143125093Y-53138306D02*
X143077474Y-53233544D01*
X143077474Y-53233544D02*
X143077474Y-53328782D01*
X143077474Y-53328782D02*
X143125093Y-53471639D01*
X143125093Y-53471639D02*
X143696521Y-54043068D01*
X143696521Y-54043068D02*
X143077474Y-54043068D01*
X142458426Y-53043068D02*
X142363188Y-53043068D01*
X142363188Y-53043068D02*
X142267950Y-53090687D01*
X142267950Y-53090687D02*
X142220331Y-53138306D01*
X142220331Y-53138306D02*
X142172712Y-53233544D01*
X142172712Y-53233544D02*
X142125093Y-53424020D01*
X142125093Y-53424020D02*
X142125093Y-53662115D01*
X142125093Y-53662115D02*
X142172712Y-53852591D01*
X142172712Y-53852591D02*
X142220331Y-53947829D01*
X142220331Y-53947829D02*
X142267950Y-53995449D01*
X142267950Y-53995449D02*
X142363188Y-54043068D01*
X142363188Y-54043068D02*
X142458426Y-54043068D01*
X142458426Y-54043068D02*
X142553664Y-53995449D01*
X142553664Y-53995449D02*
X142601283Y-53947829D01*
X142601283Y-53947829D02*
X142648902Y-53852591D01*
X142648902Y-53852591D02*
X142696521Y-53662115D01*
X142696521Y-53662115D02*
X142696521Y-53424020D01*
X142696521Y-53424020D02*
X142648902Y-53233544D01*
X142648902Y-53233544D02*
X142601283Y-53138306D01*
X142601283Y-53138306D02*
X142553664Y-53090687D01*
X142553664Y-53090687D02*
X142458426Y-53043068D01*
X180409819Y-46301905D02*
X179409819Y-46301905D01*
X179409819Y-46301905D02*
X179409819Y-46540000D01*
X179409819Y-46540000D02*
X179457438Y-46682857D01*
X179457438Y-46682857D02*
X179552676Y-46778095D01*
X179552676Y-46778095D02*
X179647914Y-46825714D01*
X179647914Y-46825714D02*
X179838390Y-46873333D01*
X179838390Y-46873333D02*
X179981247Y-46873333D01*
X179981247Y-46873333D02*
X180171723Y-46825714D01*
X180171723Y-46825714D02*
X180266961Y-46778095D01*
X180266961Y-46778095D02*
X180362200Y-46682857D01*
X180362200Y-46682857D02*
X180409819Y-46540000D01*
X180409819Y-46540000D02*
X180409819Y-46301905D01*
X179838390Y-47444762D02*
X179790771Y-47349524D01*
X179790771Y-47349524D02*
X179743152Y-47301905D01*
X179743152Y-47301905D02*
X179647914Y-47254286D01*
X179647914Y-47254286D02*
X179600295Y-47254286D01*
X179600295Y-47254286D02*
X179505057Y-47301905D01*
X179505057Y-47301905D02*
X179457438Y-47349524D01*
X179457438Y-47349524D02*
X179409819Y-47444762D01*
X179409819Y-47444762D02*
X179409819Y-47635238D01*
X179409819Y-47635238D02*
X179457438Y-47730476D01*
X179457438Y-47730476D02*
X179505057Y-47778095D01*
X179505057Y-47778095D02*
X179600295Y-47825714D01*
X179600295Y-47825714D02*
X179647914Y-47825714D01*
X179647914Y-47825714D02*
X179743152Y-47778095D01*
X179743152Y-47778095D02*
X179790771Y-47730476D01*
X179790771Y-47730476D02*
X179838390Y-47635238D01*
X179838390Y-47635238D02*
X179838390Y-47444762D01*
X179838390Y-47444762D02*
X179886009Y-47349524D01*
X179886009Y-47349524D02*
X179933628Y-47301905D01*
X179933628Y-47301905D02*
X180028866Y-47254286D01*
X180028866Y-47254286D02*
X180219342Y-47254286D01*
X180219342Y-47254286D02*
X180314580Y-47301905D01*
X180314580Y-47301905D02*
X180362200Y-47349524D01*
X180362200Y-47349524D02*
X180409819Y-47444762D01*
X180409819Y-47444762D02*
X180409819Y-47635238D01*
X180409819Y-47635238D02*
X180362200Y-47730476D01*
X180362200Y-47730476D02*
X180314580Y-47778095D01*
X180314580Y-47778095D02*
X180219342Y-47825714D01*
X180219342Y-47825714D02*
X180028866Y-47825714D01*
X180028866Y-47825714D02*
X179933628Y-47778095D01*
X179933628Y-47778095D02*
X179886009Y-47730476D01*
X179886009Y-47730476D02*
X179838390Y-47635238D01*
X180584819Y-54410714D02*
X179584819Y-54410714D01*
X179584819Y-54410714D02*
X179584819Y-54648809D01*
X179584819Y-54648809D02*
X179632438Y-54791666D01*
X179632438Y-54791666D02*
X179727676Y-54886904D01*
X179727676Y-54886904D02*
X179822914Y-54934523D01*
X179822914Y-54934523D02*
X180013390Y-54982142D01*
X180013390Y-54982142D02*
X180156247Y-54982142D01*
X180156247Y-54982142D02*
X180346723Y-54934523D01*
X180346723Y-54934523D02*
X180441961Y-54886904D01*
X180441961Y-54886904D02*
X180537200Y-54791666D01*
X180537200Y-54791666D02*
X180584819Y-54648809D01*
X180584819Y-54648809D02*
X180584819Y-54410714D01*
X180584819Y-55934523D02*
X180584819Y-55363095D01*
X180584819Y-55648809D02*
X179584819Y-55648809D01*
X179584819Y-55648809D02*
X179727676Y-55553571D01*
X179727676Y-55553571D02*
X179822914Y-55458333D01*
X179822914Y-55458333D02*
X179870533Y-55363095D01*
X179584819Y-56553571D02*
X179584819Y-56648809D01*
X179584819Y-56648809D02*
X179632438Y-56744047D01*
X179632438Y-56744047D02*
X179680057Y-56791666D01*
X179680057Y-56791666D02*
X179775295Y-56839285D01*
X179775295Y-56839285D02*
X179965771Y-56886904D01*
X179965771Y-56886904D02*
X180203866Y-56886904D01*
X180203866Y-56886904D02*
X180394342Y-56839285D01*
X180394342Y-56839285D02*
X180489580Y-56791666D01*
X180489580Y-56791666D02*
X180537200Y-56744047D01*
X180537200Y-56744047D02*
X180584819Y-56648809D01*
X180584819Y-56648809D02*
X180584819Y-56553571D01*
X180584819Y-56553571D02*
X180537200Y-56458333D01*
X180537200Y-56458333D02*
X180489580Y-56410714D01*
X180489580Y-56410714D02*
X180394342Y-56363095D01*
X180394342Y-56363095D02*
X180203866Y-56315476D01*
X180203866Y-56315476D02*
X179965771Y-56315476D01*
X179965771Y-56315476D02*
X179775295Y-56363095D01*
X179775295Y-56363095D02*
X179680057Y-56410714D01*
X179680057Y-56410714D02*
X179632438Y-56458333D01*
X179632438Y-56458333D02*
X179584819Y-56553571D01*
X179329285Y-60674819D02*
X179329285Y-59674819D01*
X179329285Y-59674819D02*
X179091190Y-59674819D01*
X179091190Y-59674819D02*
X178948333Y-59722438D01*
X178948333Y-59722438D02*
X178853095Y-59817676D01*
X178853095Y-59817676D02*
X178805476Y-59912914D01*
X178805476Y-59912914D02*
X178757857Y-60103390D01*
X178757857Y-60103390D02*
X178757857Y-60246247D01*
X178757857Y-60246247D02*
X178805476Y-60436723D01*
X178805476Y-60436723D02*
X178853095Y-60531961D01*
X178853095Y-60531961D02*
X178948333Y-60627200D01*
X178948333Y-60627200D02*
X179091190Y-60674819D01*
X179091190Y-60674819D02*
X179329285Y-60674819D01*
X177805476Y-60674819D02*
X178376904Y-60674819D01*
X178091190Y-60674819D02*
X178091190Y-59674819D01*
X178091190Y-59674819D02*
X178186428Y-59817676D01*
X178186428Y-59817676D02*
X178281666Y-59912914D01*
X178281666Y-59912914D02*
X178376904Y-59960533D01*
X177424523Y-59770057D02*
X177376904Y-59722438D01*
X177376904Y-59722438D02*
X177281666Y-59674819D01*
X177281666Y-59674819D02*
X177043571Y-59674819D01*
X177043571Y-59674819D02*
X176948333Y-59722438D01*
X176948333Y-59722438D02*
X176900714Y-59770057D01*
X176900714Y-59770057D02*
X176853095Y-59865295D01*
X176853095Y-59865295D02*
X176853095Y-59960533D01*
X176853095Y-59960533D02*
X176900714Y-60103390D01*
X176900714Y-60103390D02*
X177472142Y-60674819D01*
X177472142Y-60674819D02*
X176853095Y-60674819D01*
X175924819Y-56070714D02*
X174924819Y-56070714D01*
X174924819Y-56070714D02*
X174924819Y-56308809D01*
X174924819Y-56308809D02*
X174972438Y-56451666D01*
X174972438Y-56451666D02*
X175067676Y-56546904D01*
X175067676Y-56546904D02*
X175162914Y-56594523D01*
X175162914Y-56594523D02*
X175353390Y-56642142D01*
X175353390Y-56642142D02*
X175496247Y-56642142D01*
X175496247Y-56642142D02*
X175686723Y-56594523D01*
X175686723Y-56594523D02*
X175781961Y-56546904D01*
X175781961Y-56546904D02*
X175877200Y-56451666D01*
X175877200Y-56451666D02*
X175924819Y-56308809D01*
X175924819Y-56308809D02*
X175924819Y-56070714D01*
X175924819Y-57594523D02*
X175924819Y-57023095D01*
X175924819Y-57308809D02*
X174924819Y-57308809D01*
X174924819Y-57308809D02*
X175067676Y-57213571D01*
X175067676Y-57213571D02*
X175162914Y-57118333D01*
X175162914Y-57118333D02*
X175210533Y-57023095D01*
X175924819Y-58546904D02*
X175924819Y-57975476D01*
X175924819Y-58261190D02*
X174924819Y-58261190D01*
X174924819Y-58261190D02*
X175067676Y-58165952D01*
X175067676Y-58165952D02*
X175162914Y-58070714D01*
X175162914Y-58070714D02*
X175210533Y-57975476D01*
D11*
%TO.C,R21*%
X137252500Y-60137473D02*
X137252500Y-59628025D01*
X138297500Y-60137473D02*
X138297500Y-59628025D01*
%TO.C,R3*%
X139202500Y-60149973D02*
X139202500Y-59640525D01*
X140247500Y-60149973D02*
X140247500Y-59640525D01*
%TO.C,MK1*%
X138299998Y-52653249D02*
X138299998Y-56053249D01*
X138599998Y-56353249D02*
X141149998Y-56353249D01*
X141149998Y-52653249D02*
X138299998Y-52653249D01*
X141149998Y-56353249D02*
X141149998Y-52653249D01*
X138299998Y-56633249D02*
X138019998Y-56353249D01*
X138299998Y-56353249D01*
X138299998Y-56633249D01*
G36*
X138299998Y-56633249D02*
G01*
X138019998Y-56353249D01*
X138299998Y-56353249D01*
X138299998Y-56633249D01*
G37*
%TO.C,D9*%
X178840000Y-50455000D02*
X178840000Y-48640000D01*
X180060000Y-48640000D02*
X180060000Y-50455000D01*
X180060000Y-50455000D02*
X178840000Y-50455000D01*
%TO.C,R22*%
X139500420Y-78710654D02*
X139860654Y-78350420D01*
X140239346Y-79449580D02*
X140599580Y-79089346D01*
%TO.C,D13*%
X178240000Y-63590000D02*
X180055000Y-63590000D01*
X180055000Y-63590000D02*
X180055000Y-64810000D01*
X180055000Y-64810000D02*
X178240000Y-64810000D01*
%TO.C,D14*%
X178945000Y-66840000D02*
X180760000Y-66840000D01*
X178945000Y-68060000D02*
X178945000Y-66840000D01*
X180760000Y-68060000D02*
X178945000Y-68060000D01*
%TO.C,C14*%
X136440000Y-54158767D02*
X136440000Y-53866233D01*
X137460000Y-54158767D02*
X137460000Y-53866233D01*
%TO.C,C15*%
X133890000Y-54123752D02*
X133890000Y-53601248D01*
X135360000Y-54123752D02*
X135360000Y-53601248D01*
D12*
%TO.C,J4*%
X137675000Y-84750000D02*
X137675000Y-98030000D01*
X139120000Y-100000000D02*
X151675000Y-100000000D01*
X142990000Y-84750000D02*
X137675000Y-84750000D01*
X151675000Y-84750000D02*
X150630000Y-84750000D01*
X151675000Y-97030000D02*
X151675000Y-84750000D01*
X151675000Y-100000000D02*
X151675000Y-99570000D01*
X142870000Y-100440000D02*
G75*
G02*
X142670000Y-100440000I-100000J0D01*
G01*
X142670000Y-100440000D02*
G75*
G02*
X142870000Y-100440000I100000J0D01*
G01*
D11*
%TO.C,D7*%
X176940000Y-45480000D02*
X176940000Y-43665000D01*
X178160000Y-43665000D02*
X178160000Y-45480000D01*
X178160000Y-45480000D02*
X176940000Y-45480000D01*
%TO.C,R20*%
X143641722Y-54495749D02*
X143132274Y-54495749D01*
X143641722Y-55540749D02*
X143132274Y-55540749D01*
%TO.C,D8*%
X177915000Y-48055000D02*
X177915000Y-46240000D01*
X179135000Y-46240000D02*
X179135000Y-48055000D01*
X179135000Y-48055000D02*
X177915000Y-48055000D01*
%TO.C,D10*%
X178090000Y-56640000D02*
X178090000Y-54825000D01*
X179310000Y-54825000D02*
X179310000Y-56640000D01*
X179310000Y-56640000D02*
X178090000Y-56640000D01*
%TO.C,D12*%
X177315000Y-61040000D02*
X179130000Y-61040000D01*
X179130000Y-61040000D02*
X179130000Y-62260000D01*
X179130000Y-62260000D02*
X177315000Y-62260000D01*
%TO.C,D11*%
X176290000Y-56270000D02*
X177510000Y-56270000D01*
X176290000Y-58085000D02*
X176290000Y-56270000D01*
X177510000Y-56270000D02*
X177510000Y-58085000D01*
%TD*%
M02*
