%TF.GenerationSoftware,KiCad,Pcbnew,9.0.4*%
%TF.CreationDate,2026-03-13T12:35:10-04:00*%
%TF.ProjectId,Ear2Ink_PCB_Design,45617232-496e-46b5-9f50-43425f446573,rev?*%
%TF.SameCoordinates,Original*%
%TF.FileFunction,Paste,Bot*%
%TF.FilePolarity,Positive*%
%FSLAX46Y46*%
G04 Gerber Fmt 4.6, Leading zero omitted, Abs format (unit mm)*
G04 Created by KiCad (PCBNEW 9.0.4) date 2026-03-13 12:35:10*
%MOMM*%
%LPD*%
G01*
G04 APERTURE LIST*
G04 Aperture macros list*
%AMRoundRect*
0 Rectangle with rounded corners*
0 $1 Rounding radius*
0 $2 $3 $4 $5 $6 $7 $8 $9 X,Y pos of 4 corners*
0 Add a 4 corners polygon primitive as box body*
4,1,4,$2,$3,$4,$5,$6,$7,$8,$9,$2,$3,0*
0 Add four circle primitives for the rounded corners*
1,1,$1+$1,$2,$3*
1,1,$1+$1,$4,$5*
1,1,$1+$1,$6,$7*
1,1,$1+$1,$8,$9*
0 Add four rect primitives between the rounded corners*
20,1,$1+$1,$2,$3,$4,$5,0*
20,1,$1+$1,$4,$5,$6,$7,0*
20,1,$1+$1,$6,$7,$8,$9,0*
20,1,$1+$1,$8,$9,$2,$3,0*%
G04 Aperture macros list end*
%ADD10C,0.000000*%
%ADD11RoundRect,0.237500X0.237500X-0.250000X0.237500X0.250000X-0.237500X0.250000X-0.237500X-0.250000X0*%
%ADD12RoundRect,0.130500X-0.169500X-0.130500X0.169500X-0.130500X0.169500X0.130500X-0.169500X0.130500X0*%
%ADD13RoundRect,0.075000X0.275000X-0.390000X0.275000X0.390000X-0.275000X0.390000X-0.275000X-0.390000X0*%
%ADD14RoundRect,0.075000X0.275000X-0.075000X0.275000X0.075000X-0.275000X0.075000X-0.275000X-0.075000X0*%
%ADD15RoundRect,0.237500X-0.008839X-0.344715X0.344715X0.008839X0.008839X0.344715X-0.344715X-0.008839X0*%
%ADD16RoundRect,0.075000X0.390000X0.275000X-0.390000X0.275000X-0.390000X-0.275000X0.390000X-0.275000X0*%
%ADD17RoundRect,0.075000X0.075000X0.275000X-0.075000X0.275000X-0.075000X-0.275000X0.075000X-0.275000X0*%
%ADD18RoundRect,0.075000X-0.390000X-0.275000X0.390000X-0.275000X0.390000X0.275000X-0.390000X0.275000X0*%
%ADD19RoundRect,0.075000X-0.075000X-0.275000X0.075000X-0.275000X0.075000X0.275000X-0.075000X0.275000X0*%
%ADD20RoundRect,0.237500X0.237500X-0.300000X0.237500X0.300000X-0.237500X0.300000X-0.237500X-0.300000X0*%
%ADD21RoundRect,0.250000X0.475000X-0.337500X0.475000X0.337500X-0.475000X0.337500X-0.475000X-0.337500X0*%
%ADD22R,1.400000X1.900000*%
%ADD23R,1.200000X1.400000*%
%ADD24R,1.300000X1.400000*%
%ADD25R,0.800000X1.500000*%
%ADD26R,1.000000X1.040000*%
%ADD27RoundRect,0.237500X0.250000X0.237500X-0.250000X0.237500X-0.250000X-0.237500X0.250000X-0.237500X0*%
%ADD28RoundRect,0.075000X-0.275000X0.390000X-0.275000X-0.390000X0.275000X-0.390000X0.275000X0.390000X0*%
%ADD29RoundRect,0.075000X-0.275000X0.075000X-0.275000X-0.075000X0.275000X-0.075000X0.275000X0.075000X0*%
G04 APERTURE END LIST*
D10*
%TO.C,MK1*%
G36*
X139298898Y-53508549D02*
G01*
X139257198Y-53583949D01*
X139228698Y-53665249D01*
X139214298Y-53750149D01*
X139214298Y-53836349D01*
X139228698Y-53921249D01*
X139257198Y-54002549D01*
X139298898Y-54077949D01*
X139084098Y-54292649D01*
X139001698Y-54163249D01*
X138944998Y-54020649D01*
X138916098Y-53869949D01*
X138916098Y-53716549D01*
X138944998Y-53565849D01*
X139001698Y-53423249D01*
X139084098Y-53293849D01*
X139298898Y-53508549D01*
G37*
G36*
X140224398Y-54434149D02*
G01*
X140094998Y-54516549D01*
X139952398Y-54573249D01*
X139801698Y-54602149D01*
X139648298Y-54602149D01*
X139497598Y-54573249D01*
X139354998Y-54516549D01*
X139225598Y-54434149D01*
X139440298Y-54219349D01*
X139515698Y-54261049D01*
X139596998Y-54289549D01*
X139681898Y-54303949D01*
X139768098Y-54303949D01*
X139852998Y-54289549D01*
X139934298Y-54261049D01*
X140009698Y-54219349D01*
X140224398Y-54434149D01*
G37*
G36*
X139952398Y-53013249D02*
G01*
X140094998Y-53069949D01*
X140224398Y-53152349D01*
X140009698Y-53367149D01*
X139934298Y-53325449D01*
X139852998Y-53296949D01*
X139768098Y-53282549D01*
X139681898Y-53282549D01*
X139596998Y-53296949D01*
X139515698Y-53325449D01*
X139440298Y-53367149D01*
X139225598Y-53152349D01*
X139354998Y-53069949D01*
X139497598Y-53013249D01*
X139648298Y-52984349D01*
X139801698Y-52984349D01*
X139952398Y-53013249D01*
G37*
G36*
X140448298Y-53423249D02*
G01*
X140504998Y-53565849D01*
X140533898Y-53716549D01*
X140533898Y-53869949D01*
X140504998Y-54020649D01*
X140448298Y-54163249D01*
X140365898Y-54292649D01*
X140151098Y-54077949D01*
X140192798Y-54002549D01*
X140221298Y-53921249D01*
X140235698Y-53836349D01*
X140235698Y-53750149D01*
X140221298Y-53665249D01*
X140192798Y-53583949D01*
X140151098Y-53508549D01*
X140365898Y-53293849D01*
X140448298Y-53423249D01*
G37*
%TD*%
D11*
%TO.C,R21*%
X137775000Y-60795249D03*
X137775000Y-58970249D03*
%TD*%
%TO.C,R3*%
X139725000Y-60807749D03*
X139725000Y-58982749D03*
%TD*%
D12*
%TO.C,MK1*%
X138824998Y-55867249D03*
X138824998Y-55045249D03*
X140624998Y-55045249D03*
X140624998Y-55867249D03*
X139724998Y-55867249D03*
%TD*%
D13*
%TO.C,D9*%
X179450000Y-49725000D03*
D14*
X179450000Y-48840000D03*
%TD*%
D15*
%TO.C,R22*%
X139404765Y-79545235D03*
X140695235Y-78254765D03*
%TD*%
D16*
%TO.C,D13*%
X179325000Y-64200000D03*
D17*
X178440000Y-64200000D03*
%TD*%
D18*
%TO.C,D14*%
X179675000Y-67450000D03*
D19*
X180560000Y-67450000D03*
%TD*%
D20*
%TO.C,C14*%
X136950000Y-54875000D03*
X136950000Y-53150000D03*
%TD*%
D21*
%TO.C,C15*%
X134625000Y-54900000D03*
X134625000Y-52825000D03*
%TD*%
D22*
%TO.C,J4*%
X151250000Y-98300000D03*
X138100000Y-99300000D03*
D23*
X149710000Y-85150000D03*
D24*
X143960000Y-85150000D03*
D25*
X142770000Y-96010000D03*
X143870000Y-95610000D03*
X144970000Y-96010000D03*
X146070000Y-96210000D03*
X147170000Y-96010000D03*
X148270000Y-96210000D03*
X149370000Y-96010000D03*
X150470000Y-96010000D03*
D26*
X148260000Y-84780000D03*
%TD*%
D13*
%TO.C,D7*%
X177550000Y-44750000D03*
D14*
X177550000Y-43865000D03*
%TD*%
D27*
%TO.C,R20*%
X144299498Y-55018249D03*
X142474498Y-55018249D03*
%TD*%
D13*
%TO.C,D8*%
X178525000Y-47325000D03*
D14*
X178525000Y-46440000D03*
%TD*%
D13*
%TO.C,D10*%
X178700000Y-55910000D03*
D14*
X178700000Y-55025000D03*
%TD*%
D16*
%TO.C,D12*%
X178400000Y-61650000D03*
D17*
X177515000Y-61650000D03*
%TD*%
D28*
%TO.C,D11*%
X176900000Y-57000000D03*
D29*
X176900000Y-57885000D03*
%TD*%
M02*
