M48
; DRILL file {KiCad 9.0.4} date 2026-03-13T12:35:16-0400
; FORMAT={-:-/ absolute / metric / decimal}
; #@! TF.CreationDate,2026-03-13T12:35:16-04:00
; #@! TF.GenerationSoftware,Kicad,Pcbnew,9.0.4
; #@! TF.FileFunction,Plated,1,2,PTH
FMAT,2
METRIC
; #@! TA.AperFunction,Plated,PTH,ViaDrill
T1C0.300
; #@! TA.AperFunction,Plated,PTH,ViaDrill
T2C0.381
; #@! TA.AperFunction,Plated,PTH,ViaDrill
T3C0.400
; #@! TA.AperFunction,Plated,PTH,ComponentDrill
T4C1.000
; #@! TA.AperFunction,Plated,PTH,ComponentDrill
T5C1.200
%
G90
G05
T1
X101.85Y-59.515
X131.9Y-89.0
X132.05Y-91.55
X132.225Y-99.325
X133.15Y-92.9
X133.6Y-90.2
X134.425Y-97.0
X134.475Y-94.425
X134.6Y-56.4
X135.85Y-80.025
X136.2Y-66.2
X137.25Y-81.75
X138.0Y-86.1
X139.106Y-64.794
X139.504Y-75.52
X140.2Y-72.0
X140.35Y-69.9
X141.0Y-80.4
X141.05Y-64.9
X141.25Y-60.7
X141.5Y-77.6
X141.8Y-56.3
X142.3Y-61.75
X142.39Y-93.235
X142.85Y-67.35
X143.5Y-58.3
X143.875Y-97.45
X143.95Y-68.45
X144.475Y-72.6
X144.65Y-79.65
X144.699Y-69.963
X144.75Y-81.3
X144.85Y-59.5
X145.0Y-94.4
X145.2Y-74.9
X145.5Y-32.6
X145.7Y-70.05
X145.9Y-35.25
X146.07Y-67.755
X146.65Y-79.55
X146.672Y-68.358
X146.721Y-69.992
X147.278Y-66.172
X147.4Y-34.2
X147.8Y-81.25
X147.95Y-32.15
X148.05Y-49.025
X148.27Y-100.345
X149.403Y-68.297
X149.425Y-99.3
X149.874Y-72.574
X150.055Y-68.949
X150.5Y-31.9
X150.75Y-60.65
X151.175Y-65.425
X151.95Y-75.15
X152.15Y-65.35
X152.8Y-85.2
X153.45Y-63.0
X153.5Y-40.95
X154.0Y-72.3
X154.05Y-42.75
X154.25Y-79.9
X154.5Y-63.0
X154.75Y-41.0
X155.85Y-88.6
X155.9Y-43.85
X156.05Y-40.95
X156.35Y-99.8
X156.45Y-52.05
X156.55Y-62.95
X156.75Y-93.35
X156.85Y-66.3
X156.85Y-90.25
X157.4Y-40.95
X157.55Y-98.3
X158.05Y-92.1
X158.1Y-53.5
X158.1Y-89.05
X158.2Y-61.0
X158.35Y-64.9
X158.45Y-38.3
X158.5Y-35.8
X158.85Y-36.95
X158.925Y-79.797
X159.55Y-38.3
X159.55Y-63.85
X159.7Y-59.6
X159.875Y-96.9
X159.9Y-33.2
X160.1Y-36.05
X160.45Y-40.9
X160.7Y-62.9
X160.95Y-34.5
X161.25Y-53.45
X161.6Y-35.9
X162.425Y-78.748
X162.6Y-33.55
X163.5Y-35.65
X163.55Y-38.1
X165.1Y-72.1
X166.0Y-34.75
X166.15Y-71.3
X167.4Y-72.2
X168.05Y-54.65
X168.05Y-56.4
X168.1Y-55.445
X168.15Y-36.15
X168.2Y-48.15
X169.651Y-52.62
X170.25Y-53.45
X170.6Y-32.55
X170.85Y-51.85
X172.05Y-34.2
X172.45Y-38.35
X172.8Y-37.0
X173.7Y-39.4
X174.25Y-29.9
X174.4Y-32.75
X174.8Y-35.85
X175.3Y-48.85
X176.525Y-61.625
X176.875Y-58.625
X179.05Y-45.475
X179.975Y-47.95
X181.5Y-30.45
X181.65Y-67.4
T2
X135.875Y-81.675
X136.6Y-84.05
X138.0Y-82.55
T3
X88.15Y-41.75
X88.35Y-48.55
X88.5Y-34.1
X89.9Y-28.25
X92.5Y-98.85
X94.1Y-74.3
X94.6Y-41.6
X94.8Y-48.4
X94.9Y-94.55
X94.95Y-33.95
X96.35Y-28.1
X96.8Y-66.95
X96.8Y-70.5
X96.8Y-76.7
X97.75Y-89.05
X98.45Y-23.0
X98.95Y-98.7
X100.55Y-74.15
X100.7Y-41.35
X100.9Y-48.15
X101.05Y-33.7
X101.35Y-94.4
X103.25Y-66.8
X103.25Y-70.35
X104.2Y-88.9
X104.7Y-98.6
X104.9Y-22.85
X105.75Y-84.35
X105.95Y-29.4
X106.5Y-41.5
X106.6Y-56.3
X106.85Y-33.85
X107.45Y-94.15
X108.75Y-65.05
X108.925Y-51.75
X110.2Y-89.4
X110.3Y-84.35
X110.4Y-78.9
X111.15Y-98.45
X112.15Y-48.85
X112.4Y-29.25
X112.9Y-45.15
X113.15Y-71.9
X113.25Y-94.3
X113.45Y-56.35
X113.7Y-33.9
X114.625Y-52.25
X116.65Y-89.25
X116.7Y-68.5
X116.75Y-84.2
X116.85Y-78.75
X118.5Y-29.0
X118.6Y-45.65
X119.15Y-56.85
X119.25Y-48.85
X119.6Y-71.75
X119.675Y-41.7
X119.75Y-36.9
X120.1Y-94.35
X124.3Y-29.15
X125.0Y-58.5
X125.375Y-42.2
X125.475Y-66.5
X125.65Y-24.7
X127.55Y-58.575
X127.8Y-66.5
X129.875Y-58.575
X130.0Y-66.55
X131.0Y-33.6
X131.15Y-29.2
X131.2Y-40.4
X132.1Y-24.55
X138.2Y-24.3
X138.25Y-97.0
X139.65Y-28.55
X144.0Y-24.45
X145.525Y-85.15
X146.1Y-28.4
X146.775Y-91.775
X148.45Y-93.625
X150.85Y-24.5
X152.425Y-90.425
X152.425Y-92.55
X153.325Y-98.325
X153.575Y-22.025
X157.25Y-24.5
X158.0Y-28.3
X163.7Y-24.35
X163.8Y-47.85
X164.375Y-62.625
X164.55Y-50.75
X164.8Y-65.2
X164.85Y-28.35
X165.175Y-59.5
X165.75Y-91.9
X165.9Y-95.4
X166.1Y-48.65
X166.5Y-64.0
X167.375Y-59.325
X167.375Y-84.7
X167.525Y-88.2
X169.8Y-24.1
X169.9Y-95.6
X169.95Y-92.3
X170.8Y-66.75
X171.15Y-84.65
X171.3Y-88.15
X172.1Y-29.5
X172.625Y-59.15
X172.925Y-62.75
X174.45Y-65.2
X174.575Y-68.375
X175.0Y-61.475
X175.125Y-59.35
X175.2Y-74.55
X175.25Y-94.6
X175.3Y-88.35
X175.35Y-78.05
X175.35Y-85.05
X175.4Y-98.1
X175.6Y-24.25
X176.0Y-67.125
X177.6Y-66.0
X178.05Y-68.55
X178.7Y-54.2
X179.35Y-78.25
X179.4Y-74.95
X180.55Y-92.4
X180.65Y-98.5
X180.7Y-95.9
X181.85Y-81.95
X182.0Y-85.45
X182.35Y-71.8
X182.425Y-69.3
X182.45Y-24.3
X184.75Y-92.8
X184.8Y-75.3
X184.95Y-78.8
X185.975Y-36.3
X186.0Y-85.65
X186.05Y-82.35
X186.35Y-72.0
X186.4Y-68.7
X186.55Y-27.75
X187.0Y-32.7
T4
X86.35Y-54.17
X86.35Y-56.71
X86.35Y-59.25
X86.35Y-61.79
X86.35Y-64.33
X86.35Y-66.87
X86.35Y-69.41
X86.35Y-71.95
X86.35Y-74.49
X86.35Y-77.03
X86.35Y-79.57
X86.35Y-82.11
X86.35Y-84.65
X86.35Y-87.19
X86.35Y-89.73
X86.35Y-92.27
X90.94Y-54.17
X90.94Y-56.71
X90.94Y-59.25
X90.94Y-61.79
X90.94Y-64.33
X90.94Y-66.87
X90.94Y-69.41
X90.94Y-71.95
X90.94Y-74.49
X90.94Y-77.03
X90.94Y-79.57
X90.94Y-82.11
X90.94Y-84.65
X90.94Y-87.19
X90.94Y-89.73
X90.94Y-92.27
X128.65Y-85.55
X128.65Y-88.09
X128.65Y-90.63
X128.65Y-93.17
X128.65Y-95.71
X128.65Y-98.25
X169.975Y-71.57
X169.975Y-74.11
X169.975Y-76.65
X169.975Y-79.19
X182.065Y-44.66
X182.065Y-47.2
X182.065Y-49.74
X182.065Y-52.28
X182.065Y-54.82
X182.065Y-57.36
X182.065Y-59.9
X182.065Y-62.44
X186.855Y-44.715
X186.855Y-47.255
X186.855Y-49.795
X186.855Y-52.335
X186.855Y-54.875
X186.855Y-57.415
X186.855Y-59.955
X186.855Y-62.495
T5
X178.7Y-31.05
X178.7Y-34.55
M30
