%TF.GenerationSoftware,KiCad,Pcbnew,9.0.4*%
%TF.CreationDate,2026-03-13T12:35:16-04:00*%
%TF.ProjectId,Ear2Ink_PCB_Design,45617232-496e-46b5-9f50-43425f446573,rev?*%
%TF.SameCoordinates,Original*%
%TF.FileFunction,Drillmap*%
%TF.FilePolarity,Positive*%
%FSLAX45Y45*%
G04 Gerber Fmt 4.5, Leading zero omitted, Abs format (unit mm)*
G04 Created by KiCad (PCBNEW 9.0.4) date 2026-03-13 12:35:16*
%MOMM*%
%LPD*%
G01*
G04 APERTURE LIST*
%ADD10C,0.050000*%
%ADD11C,0.200000*%
%ADD12C,0.100000*%
%ADD13C,0.250000*%
G04 APERTURE END LIST*
D10*
X8255000Y-1905000D02*
X19050000Y-1905000D01*
X19050000Y-10160000D01*
X8255000Y-10160000D01*
X8255000Y-1905000D01*
D11*
D12*
X13947500Y-5354325D02*
X13997500Y-5404325D01*
X13997500Y-5354325D02*
X13947500Y-5404325D01*
D13*
X8837500Y-9767500D02*
G75*
G02*
X8587500Y-9767500I-125000J0D01*
G01*
X8587500Y-9767500D02*
G75*
G02*
X8837500Y-9767500I125000J0D01*
G01*
X9015000Y-2540000D02*
G75*
G02*
X8765000Y-2540000I-125000J0D01*
G01*
X8765000Y-2540000D02*
G75*
G02*
X9015000Y-2540000I125000J0D01*
G01*
X18667000Y-2540000D02*
G75*
G02*
X18417000Y-2540000I-125000J0D01*
G01*
X18417000Y-2540000D02*
G75*
G02*
X18667000Y-2540000I125000J0D01*
G01*
X18667000Y-9525000D02*
G75*
G02*
X18417000Y-9525000I-125000J0D01*
G01*
X18417000Y-9525000D02*
G75*
G02*
X18667000Y-9525000I125000J0D01*
G01*
D11*
X8513277Y-10473984D02*
X8513277Y-10273984D01*
X8513277Y-10273984D02*
X8560896Y-10273984D01*
X8560896Y-10273984D02*
X8589467Y-10283508D01*
X8589467Y-10283508D02*
X8608515Y-10302555D01*
X8608515Y-10302555D02*
X8618039Y-10321603D01*
X8618039Y-10321603D02*
X8627563Y-10359698D01*
X8627563Y-10359698D02*
X8627563Y-10388270D01*
X8627563Y-10388270D02*
X8618039Y-10426365D01*
X8618039Y-10426365D02*
X8608515Y-10445412D01*
X8608515Y-10445412D02*
X8589467Y-10464460D01*
X8589467Y-10464460D02*
X8560896Y-10473984D01*
X8560896Y-10473984D02*
X8513277Y-10473984D01*
X8713277Y-10473984D02*
X8713277Y-10340650D01*
X8713277Y-10378746D02*
X8722801Y-10359698D01*
X8722801Y-10359698D02*
X8732324Y-10350174D01*
X8732324Y-10350174D02*
X8751372Y-10340650D01*
X8751372Y-10340650D02*
X8770420Y-10340650D01*
X8837086Y-10473984D02*
X8837086Y-10340650D01*
X8837086Y-10273984D02*
X8827563Y-10283508D01*
X8827563Y-10283508D02*
X8837086Y-10293031D01*
X8837086Y-10293031D02*
X8846610Y-10283508D01*
X8846610Y-10283508D02*
X8837086Y-10273984D01*
X8837086Y-10273984D02*
X8837086Y-10293031D01*
X8960896Y-10473984D02*
X8941848Y-10464460D01*
X8941848Y-10464460D02*
X8932324Y-10445412D01*
X8932324Y-10445412D02*
X8932324Y-10273984D01*
X9065658Y-10473984D02*
X9046610Y-10464460D01*
X9046610Y-10464460D02*
X9037086Y-10445412D01*
X9037086Y-10445412D02*
X9037086Y-10273984D01*
X9294229Y-10473984D02*
X9294229Y-10273984D01*
X9294229Y-10273984D02*
X9360896Y-10416841D01*
X9360896Y-10416841D02*
X9427563Y-10273984D01*
X9427563Y-10273984D02*
X9427563Y-10473984D01*
X9608515Y-10473984D02*
X9608515Y-10369222D01*
X9608515Y-10369222D02*
X9598991Y-10350174D01*
X9598991Y-10350174D02*
X9579944Y-10340650D01*
X9579944Y-10340650D02*
X9541848Y-10340650D01*
X9541848Y-10340650D02*
X9522801Y-10350174D01*
X9608515Y-10464460D02*
X9589467Y-10473984D01*
X9589467Y-10473984D02*
X9541848Y-10473984D01*
X9541848Y-10473984D02*
X9522801Y-10464460D01*
X9522801Y-10464460D02*
X9513277Y-10445412D01*
X9513277Y-10445412D02*
X9513277Y-10426365D01*
X9513277Y-10426365D02*
X9522801Y-10407317D01*
X9522801Y-10407317D02*
X9541848Y-10397793D01*
X9541848Y-10397793D02*
X9589467Y-10397793D01*
X9589467Y-10397793D02*
X9608515Y-10388270D01*
X9703753Y-10340650D02*
X9703753Y-10540650D01*
X9703753Y-10350174D02*
X9722801Y-10340650D01*
X9722801Y-10340650D02*
X9760896Y-10340650D01*
X9760896Y-10340650D02*
X9779944Y-10350174D01*
X9779944Y-10350174D02*
X9789467Y-10359698D01*
X9789467Y-10359698D02*
X9798991Y-10378746D01*
X9798991Y-10378746D02*
X9798991Y-10435889D01*
X9798991Y-10435889D02*
X9789467Y-10454936D01*
X9789467Y-10454936D02*
X9779944Y-10464460D01*
X9779944Y-10464460D02*
X9760896Y-10473984D01*
X9760896Y-10473984D02*
X9722801Y-10473984D01*
X9722801Y-10473984D02*
X9703753Y-10464460D01*
X9884705Y-10454936D02*
X9894229Y-10464460D01*
X9894229Y-10464460D02*
X9884705Y-10473984D01*
X9884705Y-10473984D02*
X9875182Y-10464460D01*
X9875182Y-10464460D02*
X9884705Y-10454936D01*
X9884705Y-10454936D02*
X9884705Y-10473984D01*
X9884705Y-10350174D02*
X9894229Y-10359698D01*
X9894229Y-10359698D02*
X9884705Y-10369222D01*
X9884705Y-10369222D02*
X9875182Y-10359698D01*
X9875182Y-10359698D02*
X9884705Y-10350174D01*
X9884705Y-10350174D02*
X9884705Y-10369222D01*
D12*
X8202500Y-10777500D02*
X8252500Y-10827500D01*
X8252500Y-10777500D02*
X8202500Y-10827500D01*
D11*
X8551372Y-10693984D02*
X8570420Y-10693984D01*
X8570420Y-10693984D02*
X8589467Y-10703508D01*
X8589467Y-10703508D02*
X8598991Y-10713031D01*
X8598991Y-10713031D02*
X8608515Y-10732079D01*
X8608515Y-10732079D02*
X8618039Y-10770174D01*
X8618039Y-10770174D02*
X8618039Y-10817793D01*
X8618039Y-10817793D02*
X8608515Y-10855889D01*
X8608515Y-10855889D02*
X8598991Y-10874936D01*
X8598991Y-10874936D02*
X8589467Y-10884460D01*
X8589467Y-10884460D02*
X8570420Y-10893984D01*
X8570420Y-10893984D02*
X8551372Y-10893984D01*
X8551372Y-10893984D02*
X8532324Y-10884460D01*
X8532324Y-10884460D02*
X8522801Y-10874936D01*
X8522801Y-10874936D02*
X8513277Y-10855889D01*
X8513277Y-10855889D02*
X8503753Y-10817793D01*
X8503753Y-10817793D02*
X8503753Y-10770174D01*
X8503753Y-10770174D02*
X8513277Y-10732079D01*
X8513277Y-10732079D02*
X8522801Y-10713031D01*
X8522801Y-10713031D02*
X8532324Y-10703508D01*
X8532324Y-10703508D02*
X8551372Y-10693984D01*
X8703753Y-10874936D02*
X8713277Y-10884460D01*
X8713277Y-10884460D02*
X8703753Y-10893984D01*
X8703753Y-10893984D02*
X8694229Y-10884460D01*
X8694229Y-10884460D02*
X8703753Y-10874936D01*
X8703753Y-10874936D02*
X8703753Y-10893984D01*
X8894229Y-10693984D02*
X8798991Y-10693984D01*
X8798991Y-10693984D02*
X8789467Y-10789222D01*
X8789467Y-10789222D02*
X8798991Y-10779698D01*
X8798991Y-10779698D02*
X8818039Y-10770174D01*
X8818039Y-10770174D02*
X8865658Y-10770174D01*
X8865658Y-10770174D02*
X8884705Y-10779698D01*
X8884705Y-10779698D02*
X8894229Y-10789222D01*
X8894229Y-10789222D02*
X8903753Y-10808270D01*
X8903753Y-10808270D02*
X8903753Y-10855889D01*
X8903753Y-10855889D02*
X8894229Y-10874936D01*
X8894229Y-10874936D02*
X8884705Y-10884460D01*
X8884705Y-10884460D02*
X8865658Y-10893984D01*
X8865658Y-10893984D02*
X8818039Y-10893984D01*
X8818039Y-10893984D02*
X8798991Y-10884460D01*
X8798991Y-10884460D02*
X8789467Y-10874936D01*
X9027563Y-10693984D02*
X9046610Y-10693984D01*
X9046610Y-10693984D02*
X9065658Y-10703508D01*
X9065658Y-10703508D02*
X9075182Y-10713031D01*
X9075182Y-10713031D02*
X9084705Y-10732079D01*
X9084705Y-10732079D02*
X9094229Y-10770174D01*
X9094229Y-10770174D02*
X9094229Y-10817793D01*
X9094229Y-10817793D02*
X9084705Y-10855889D01*
X9084705Y-10855889D02*
X9075182Y-10874936D01*
X9075182Y-10874936D02*
X9065658Y-10884460D01*
X9065658Y-10884460D02*
X9046610Y-10893984D01*
X9046610Y-10893984D02*
X9027563Y-10893984D01*
X9027563Y-10893984D02*
X9008515Y-10884460D01*
X9008515Y-10884460D02*
X8998991Y-10874936D01*
X8998991Y-10874936D02*
X8989467Y-10855889D01*
X8989467Y-10855889D02*
X8979944Y-10817793D01*
X8979944Y-10817793D02*
X8979944Y-10770174D01*
X8979944Y-10770174D02*
X8989467Y-10732079D01*
X8989467Y-10732079D02*
X8998991Y-10713031D01*
X8998991Y-10713031D02*
X9008515Y-10703508D01*
X9008515Y-10703508D02*
X9027563Y-10693984D01*
X9218039Y-10693984D02*
X9237086Y-10693984D01*
X9237086Y-10693984D02*
X9256134Y-10703508D01*
X9256134Y-10703508D02*
X9265658Y-10713031D01*
X9265658Y-10713031D02*
X9275182Y-10732079D01*
X9275182Y-10732079D02*
X9284705Y-10770174D01*
X9284705Y-10770174D02*
X9284705Y-10817793D01*
X9284705Y-10817793D02*
X9275182Y-10855889D01*
X9275182Y-10855889D02*
X9265658Y-10874936D01*
X9265658Y-10874936D02*
X9256134Y-10884460D01*
X9256134Y-10884460D02*
X9237086Y-10893984D01*
X9237086Y-10893984D02*
X9218039Y-10893984D01*
X9218039Y-10893984D02*
X9198991Y-10884460D01*
X9198991Y-10884460D02*
X9189467Y-10874936D01*
X9189467Y-10874936D02*
X9179944Y-10855889D01*
X9179944Y-10855889D02*
X9170420Y-10817793D01*
X9170420Y-10817793D02*
X9170420Y-10770174D01*
X9170420Y-10770174D02*
X9179944Y-10732079D01*
X9179944Y-10732079D02*
X9189467Y-10713031D01*
X9189467Y-10713031D02*
X9198991Y-10703508D01*
X9198991Y-10703508D02*
X9218039Y-10693984D01*
X9370420Y-10893984D02*
X9370420Y-10760650D01*
X9370420Y-10779698D02*
X9379944Y-10770174D01*
X9379944Y-10770174D02*
X9398991Y-10760650D01*
X9398991Y-10760650D02*
X9427563Y-10760650D01*
X9427563Y-10760650D02*
X9446610Y-10770174D01*
X9446610Y-10770174D02*
X9456134Y-10789222D01*
X9456134Y-10789222D02*
X9456134Y-10893984D01*
X9456134Y-10789222D02*
X9465658Y-10770174D01*
X9465658Y-10770174D02*
X9484705Y-10760650D01*
X9484705Y-10760650D02*
X9513277Y-10760650D01*
X9513277Y-10760650D02*
X9532325Y-10770174D01*
X9532325Y-10770174D02*
X9541848Y-10789222D01*
X9541848Y-10789222D02*
X9541848Y-10893984D01*
X9637086Y-10893984D02*
X9637086Y-10760650D01*
X9637086Y-10779698D02*
X9646610Y-10770174D01*
X9646610Y-10770174D02*
X9665658Y-10760650D01*
X9665658Y-10760650D02*
X9694229Y-10760650D01*
X9694229Y-10760650D02*
X9713277Y-10770174D01*
X9713277Y-10770174D02*
X9722801Y-10789222D01*
X9722801Y-10789222D02*
X9722801Y-10893984D01*
X9722801Y-10789222D02*
X9732325Y-10770174D01*
X9732325Y-10770174D02*
X9751372Y-10760650D01*
X9751372Y-10760650D02*
X9779944Y-10760650D01*
X9779944Y-10760650D02*
X9798991Y-10770174D01*
X9798991Y-10770174D02*
X9808515Y-10789222D01*
X9808515Y-10789222D02*
X9808515Y-10893984D01*
X10198991Y-10684460D02*
X10027563Y-10941603D01*
X10456134Y-10693984D02*
X10475182Y-10693984D01*
X10475182Y-10693984D02*
X10494229Y-10703508D01*
X10494229Y-10703508D02*
X10503753Y-10713031D01*
X10503753Y-10713031D02*
X10513277Y-10732079D01*
X10513277Y-10732079D02*
X10522801Y-10770174D01*
X10522801Y-10770174D02*
X10522801Y-10817793D01*
X10522801Y-10817793D02*
X10513277Y-10855889D01*
X10513277Y-10855889D02*
X10503753Y-10874936D01*
X10503753Y-10874936D02*
X10494229Y-10884460D01*
X10494229Y-10884460D02*
X10475182Y-10893984D01*
X10475182Y-10893984D02*
X10456134Y-10893984D01*
X10456134Y-10893984D02*
X10437087Y-10884460D01*
X10437087Y-10884460D02*
X10427563Y-10874936D01*
X10427563Y-10874936D02*
X10418039Y-10855889D01*
X10418039Y-10855889D02*
X10408515Y-10817793D01*
X10408515Y-10817793D02*
X10408515Y-10770174D01*
X10408515Y-10770174D02*
X10418039Y-10732079D01*
X10418039Y-10732079D02*
X10427563Y-10713031D01*
X10427563Y-10713031D02*
X10437087Y-10703508D01*
X10437087Y-10703508D02*
X10456134Y-10693984D01*
X10608515Y-10874936D02*
X10618039Y-10884460D01*
X10618039Y-10884460D02*
X10608515Y-10893984D01*
X10608515Y-10893984D02*
X10598991Y-10884460D01*
X10598991Y-10884460D02*
X10608515Y-10874936D01*
X10608515Y-10874936D02*
X10608515Y-10893984D01*
X10741848Y-10693984D02*
X10760896Y-10693984D01*
X10760896Y-10693984D02*
X10779944Y-10703508D01*
X10779944Y-10703508D02*
X10789468Y-10713031D01*
X10789468Y-10713031D02*
X10798991Y-10732079D01*
X10798991Y-10732079D02*
X10808515Y-10770174D01*
X10808515Y-10770174D02*
X10808515Y-10817793D01*
X10808515Y-10817793D02*
X10798991Y-10855889D01*
X10798991Y-10855889D02*
X10789468Y-10874936D01*
X10789468Y-10874936D02*
X10779944Y-10884460D01*
X10779944Y-10884460D02*
X10760896Y-10893984D01*
X10760896Y-10893984D02*
X10741848Y-10893984D01*
X10741848Y-10893984D02*
X10722801Y-10884460D01*
X10722801Y-10884460D02*
X10713277Y-10874936D01*
X10713277Y-10874936D02*
X10703753Y-10855889D01*
X10703753Y-10855889D02*
X10694229Y-10817793D01*
X10694229Y-10817793D02*
X10694229Y-10770174D01*
X10694229Y-10770174D02*
X10703753Y-10732079D01*
X10703753Y-10732079D02*
X10713277Y-10713031D01*
X10713277Y-10713031D02*
X10722801Y-10703508D01*
X10722801Y-10703508D02*
X10741848Y-10693984D01*
X10998991Y-10893984D02*
X10884706Y-10893984D01*
X10941848Y-10893984D02*
X10941848Y-10693984D01*
X10941848Y-10693984D02*
X10922801Y-10722555D01*
X10922801Y-10722555D02*
X10903753Y-10741603D01*
X10903753Y-10741603D02*
X10884706Y-10751127D01*
X11094229Y-10893984D02*
X11132325Y-10893984D01*
X11132325Y-10893984D02*
X11151372Y-10884460D01*
X11151372Y-10884460D02*
X11160896Y-10874936D01*
X11160896Y-10874936D02*
X11179944Y-10846365D01*
X11179944Y-10846365D02*
X11189467Y-10808270D01*
X11189467Y-10808270D02*
X11189467Y-10732079D01*
X11189467Y-10732079D02*
X11179944Y-10713031D01*
X11179944Y-10713031D02*
X11170420Y-10703508D01*
X11170420Y-10703508D02*
X11151372Y-10693984D01*
X11151372Y-10693984D02*
X11113277Y-10693984D01*
X11113277Y-10693984D02*
X11094229Y-10703508D01*
X11094229Y-10703508D02*
X11084706Y-10713031D01*
X11084706Y-10713031D02*
X11075182Y-10732079D01*
X11075182Y-10732079D02*
X11075182Y-10779698D01*
X11075182Y-10779698D02*
X11084706Y-10798746D01*
X11084706Y-10798746D02*
X11094229Y-10808270D01*
X11094229Y-10808270D02*
X11113277Y-10817793D01*
X11113277Y-10817793D02*
X11151372Y-10817793D01*
X11151372Y-10817793D02*
X11170420Y-10808270D01*
X11170420Y-10808270D02*
X11179944Y-10798746D01*
X11179944Y-10798746D02*
X11189467Y-10779698D01*
X11256134Y-10693984D02*
X11389467Y-10693984D01*
X11389467Y-10693984D02*
X11303753Y-10893984D01*
X11456134Y-10693984D02*
X11456134Y-10732079D01*
X11532325Y-10693984D02*
X11532325Y-10732079D01*
X11827563Y-10970174D02*
X11818039Y-10960650D01*
X11818039Y-10960650D02*
X11798991Y-10932079D01*
X11798991Y-10932079D02*
X11789468Y-10913031D01*
X11789468Y-10913031D02*
X11779944Y-10884460D01*
X11779944Y-10884460D02*
X11770420Y-10836841D01*
X11770420Y-10836841D02*
X11770420Y-10798746D01*
X11770420Y-10798746D02*
X11779944Y-10751127D01*
X11779944Y-10751127D02*
X11789468Y-10722555D01*
X11789468Y-10722555D02*
X11798991Y-10703508D01*
X11798991Y-10703508D02*
X11818039Y-10674936D01*
X11818039Y-10674936D02*
X11827563Y-10665412D01*
X12008515Y-10893984D02*
X11894229Y-10893984D01*
X11951372Y-10893984D02*
X11951372Y-10693984D01*
X11951372Y-10693984D02*
X11932325Y-10722555D01*
X11932325Y-10722555D02*
X11913277Y-10741603D01*
X11913277Y-10741603D02*
X11894229Y-10751127D01*
X12246610Y-10893984D02*
X12246610Y-10693984D01*
X12332325Y-10893984D02*
X12332325Y-10789222D01*
X12332325Y-10789222D02*
X12322801Y-10770174D01*
X12322801Y-10770174D02*
X12303753Y-10760650D01*
X12303753Y-10760650D02*
X12275182Y-10760650D01*
X12275182Y-10760650D02*
X12256134Y-10770174D01*
X12256134Y-10770174D02*
X12246610Y-10779698D01*
X12456134Y-10893984D02*
X12437087Y-10884460D01*
X12437087Y-10884460D02*
X12427563Y-10874936D01*
X12427563Y-10874936D02*
X12418039Y-10855889D01*
X12418039Y-10855889D02*
X12418039Y-10798746D01*
X12418039Y-10798746D02*
X12427563Y-10779698D01*
X12427563Y-10779698D02*
X12437087Y-10770174D01*
X12437087Y-10770174D02*
X12456134Y-10760650D01*
X12456134Y-10760650D02*
X12484706Y-10760650D01*
X12484706Y-10760650D02*
X12503753Y-10770174D01*
X12503753Y-10770174D02*
X12513277Y-10779698D01*
X12513277Y-10779698D02*
X12522801Y-10798746D01*
X12522801Y-10798746D02*
X12522801Y-10855889D01*
X12522801Y-10855889D02*
X12513277Y-10874936D01*
X12513277Y-10874936D02*
X12503753Y-10884460D01*
X12503753Y-10884460D02*
X12484706Y-10893984D01*
X12484706Y-10893984D02*
X12456134Y-10893984D01*
X12637087Y-10893984D02*
X12618039Y-10884460D01*
X12618039Y-10884460D02*
X12608515Y-10865412D01*
X12608515Y-10865412D02*
X12608515Y-10693984D01*
X12789468Y-10884460D02*
X12770420Y-10893984D01*
X12770420Y-10893984D02*
X12732325Y-10893984D01*
X12732325Y-10893984D02*
X12713277Y-10884460D01*
X12713277Y-10884460D02*
X12703753Y-10865412D01*
X12703753Y-10865412D02*
X12703753Y-10789222D01*
X12703753Y-10789222D02*
X12713277Y-10770174D01*
X12713277Y-10770174D02*
X12732325Y-10760650D01*
X12732325Y-10760650D02*
X12770420Y-10760650D01*
X12770420Y-10760650D02*
X12789468Y-10770174D01*
X12789468Y-10770174D02*
X12798991Y-10789222D01*
X12798991Y-10789222D02*
X12798991Y-10808270D01*
X12798991Y-10808270D02*
X12703753Y-10827317D01*
X12865658Y-10970174D02*
X12875182Y-10960650D01*
X12875182Y-10960650D02*
X12894230Y-10932079D01*
X12894230Y-10932079D02*
X12903753Y-10913031D01*
X12903753Y-10913031D02*
X12913277Y-10884460D01*
X12913277Y-10884460D02*
X12922801Y-10836841D01*
X12922801Y-10836841D02*
X12922801Y-10798746D01*
X12922801Y-10798746D02*
X12913277Y-10751127D01*
X12913277Y-10751127D02*
X12903753Y-10722555D01*
X12903753Y-10722555D02*
X12894230Y-10703508D01*
X12894230Y-10703508D02*
X12875182Y-10674936D01*
X12875182Y-10674936D02*
X12865658Y-10665412D01*
X13227563Y-10970174D02*
X13218039Y-10960650D01*
X13218039Y-10960650D02*
X13198991Y-10932079D01*
X13198991Y-10932079D02*
X13189468Y-10913031D01*
X13189468Y-10913031D02*
X13179944Y-10884460D01*
X13179944Y-10884460D02*
X13170420Y-10836841D01*
X13170420Y-10836841D02*
X13170420Y-10798746D01*
X13170420Y-10798746D02*
X13179944Y-10751127D01*
X13179944Y-10751127D02*
X13189468Y-10722555D01*
X13189468Y-10722555D02*
X13198991Y-10703508D01*
X13198991Y-10703508D02*
X13218039Y-10674936D01*
X13218039Y-10674936D02*
X13227563Y-10665412D01*
X13303753Y-10760650D02*
X13303753Y-10893984D01*
X13303753Y-10779698D02*
X13313277Y-10770174D01*
X13313277Y-10770174D02*
X13332325Y-10760650D01*
X13332325Y-10760650D02*
X13360896Y-10760650D01*
X13360896Y-10760650D02*
X13379944Y-10770174D01*
X13379944Y-10770174D02*
X13389468Y-10789222D01*
X13389468Y-10789222D02*
X13389468Y-10893984D01*
X13513277Y-10893984D02*
X13494230Y-10884460D01*
X13494230Y-10884460D02*
X13484706Y-10874936D01*
X13484706Y-10874936D02*
X13475182Y-10855889D01*
X13475182Y-10855889D02*
X13475182Y-10798746D01*
X13475182Y-10798746D02*
X13484706Y-10779698D01*
X13484706Y-10779698D02*
X13494230Y-10770174D01*
X13494230Y-10770174D02*
X13513277Y-10760650D01*
X13513277Y-10760650D02*
X13541849Y-10760650D01*
X13541849Y-10760650D02*
X13560896Y-10770174D01*
X13560896Y-10770174D02*
X13570420Y-10779698D01*
X13570420Y-10779698D02*
X13579944Y-10798746D01*
X13579944Y-10798746D02*
X13579944Y-10855889D01*
X13579944Y-10855889D02*
X13570420Y-10874936D01*
X13570420Y-10874936D02*
X13560896Y-10884460D01*
X13560896Y-10884460D02*
X13541849Y-10893984D01*
X13541849Y-10893984D02*
X13513277Y-10893984D01*
X13637087Y-10760650D02*
X13713277Y-10760650D01*
X13665658Y-10693984D02*
X13665658Y-10865412D01*
X13665658Y-10865412D02*
X13675182Y-10884460D01*
X13675182Y-10884460D02*
X13694230Y-10893984D01*
X13694230Y-10893984D02*
X13713277Y-10893984D01*
X13932325Y-10760650D02*
X13932325Y-10960650D01*
X13932325Y-10770174D02*
X13951372Y-10760650D01*
X13951372Y-10760650D02*
X13989468Y-10760650D01*
X13989468Y-10760650D02*
X14008515Y-10770174D01*
X14008515Y-10770174D02*
X14018039Y-10779698D01*
X14018039Y-10779698D02*
X14027563Y-10798746D01*
X14027563Y-10798746D02*
X14027563Y-10855889D01*
X14027563Y-10855889D02*
X14018039Y-10874936D01*
X14018039Y-10874936D02*
X14008515Y-10884460D01*
X14008515Y-10884460D02*
X13989468Y-10893984D01*
X13989468Y-10893984D02*
X13951372Y-10893984D01*
X13951372Y-10893984D02*
X13932325Y-10884460D01*
X14141849Y-10893984D02*
X14122801Y-10884460D01*
X14122801Y-10884460D02*
X14113277Y-10865412D01*
X14113277Y-10865412D02*
X14113277Y-10693984D01*
X14303753Y-10893984D02*
X14303753Y-10789222D01*
X14303753Y-10789222D02*
X14294230Y-10770174D01*
X14294230Y-10770174D02*
X14275182Y-10760650D01*
X14275182Y-10760650D02*
X14237087Y-10760650D01*
X14237087Y-10760650D02*
X14218039Y-10770174D01*
X14303753Y-10884460D02*
X14284706Y-10893984D01*
X14284706Y-10893984D02*
X14237087Y-10893984D01*
X14237087Y-10893984D02*
X14218039Y-10884460D01*
X14218039Y-10884460D02*
X14208515Y-10865412D01*
X14208515Y-10865412D02*
X14208515Y-10846365D01*
X14208515Y-10846365D02*
X14218039Y-10827317D01*
X14218039Y-10827317D02*
X14237087Y-10817793D01*
X14237087Y-10817793D02*
X14284706Y-10817793D01*
X14284706Y-10817793D02*
X14303753Y-10808270D01*
X14370420Y-10760650D02*
X14446611Y-10760650D01*
X14398992Y-10693984D02*
X14398992Y-10865412D01*
X14398992Y-10865412D02*
X14408515Y-10884460D01*
X14408515Y-10884460D02*
X14427563Y-10893984D01*
X14427563Y-10893984D02*
X14446611Y-10893984D01*
X14589468Y-10884460D02*
X14570420Y-10893984D01*
X14570420Y-10893984D02*
X14532325Y-10893984D01*
X14532325Y-10893984D02*
X14513277Y-10884460D01*
X14513277Y-10884460D02*
X14503753Y-10865412D01*
X14503753Y-10865412D02*
X14503753Y-10789222D01*
X14503753Y-10789222D02*
X14513277Y-10770174D01*
X14513277Y-10770174D02*
X14532325Y-10760650D01*
X14532325Y-10760650D02*
X14570420Y-10760650D01*
X14570420Y-10760650D02*
X14589468Y-10770174D01*
X14589468Y-10770174D02*
X14598992Y-10789222D01*
X14598992Y-10789222D02*
X14598992Y-10808270D01*
X14598992Y-10808270D02*
X14503753Y-10827317D01*
X14770420Y-10893984D02*
X14770420Y-10693984D01*
X14770420Y-10884460D02*
X14751373Y-10893984D01*
X14751373Y-10893984D02*
X14713277Y-10893984D01*
X14713277Y-10893984D02*
X14694230Y-10884460D01*
X14694230Y-10884460D02*
X14684706Y-10874936D01*
X14684706Y-10874936D02*
X14675182Y-10855889D01*
X14675182Y-10855889D02*
X14675182Y-10798746D01*
X14675182Y-10798746D02*
X14684706Y-10779698D01*
X14684706Y-10779698D02*
X14694230Y-10770174D01*
X14694230Y-10770174D02*
X14713277Y-10760650D01*
X14713277Y-10760650D02*
X14751373Y-10760650D01*
X14751373Y-10760650D02*
X14770420Y-10770174D01*
X14846611Y-10970174D02*
X14856134Y-10960650D01*
X14856134Y-10960650D02*
X14875182Y-10932079D01*
X14875182Y-10932079D02*
X14884706Y-10913031D01*
X14884706Y-10913031D02*
X14894230Y-10884460D01*
X14894230Y-10884460D02*
X14903753Y-10836841D01*
X14903753Y-10836841D02*
X14903753Y-10798746D01*
X14903753Y-10798746D02*
X14894230Y-10751127D01*
X14894230Y-10751127D02*
X14884706Y-10722555D01*
X14884706Y-10722555D02*
X14875182Y-10703508D01*
X14875182Y-10703508D02*
X14856134Y-10674936D01*
X14856134Y-10674936D02*
X14846611Y-10665412D01*
X8252500Y-11066500D02*
G75*
G02*
X8052500Y-11066500I-100000J0D01*
G01*
X8052500Y-11066500D02*
G75*
G02*
X8252500Y-11066500I100000J0D01*
G01*
X8503753Y-10977031D02*
X8513277Y-10967508D01*
X8513277Y-10967508D02*
X8532324Y-10957984D01*
X8532324Y-10957984D02*
X8579944Y-10957984D01*
X8579944Y-10957984D02*
X8598991Y-10967508D01*
X8598991Y-10967508D02*
X8608515Y-10977031D01*
X8608515Y-10977031D02*
X8618039Y-10996079D01*
X8618039Y-10996079D02*
X8618039Y-11015127D01*
X8618039Y-11015127D02*
X8608515Y-11043698D01*
X8608515Y-11043698D02*
X8494229Y-11157984D01*
X8494229Y-11157984D02*
X8618039Y-11157984D01*
X8703753Y-11138936D02*
X8713277Y-11148460D01*
X8713277Y-11148460D02*
X8703753Y-11157984D01*
X8703753Y-11157984D02*
X8694229Y-11148460D01*
X8694229Y-11148460D02*
X8703753Y-11138936D01*
X8703753Y-11138936D02*
X8703753Y-11157984D01*
X8894229Y-10957984D02*
X8798991Y-10957984D01*
X8798991Y-10957984D02*
X8789467Y-11053222D01*
X8789467Y-11053222D02*
X8798991Y-11043698D01*
X8798991Y-11043698D02*
X8818039Y-11034174D01*
X8818039Y-11034174D02*
X8865658Y-11034174D01*
X8865658Y-11034174D02*
X8884705Y-11043698D01*
X8884705Y-11043698D02*
X8894229Y-11053222D01*
X8894229Y-11053222D02*
X8903753Y-11072270D01*
X8903753Y-11072270D02*
X8903753Y-11119889D01*
X8903753Y-11119889D02*
X8894229Y-11138936D01*
X8894229Y-11138936D02*
X8884705Y-11148460D01*
X8884705Y-11148460D02*
X8865658Y-11157984D01*
X8865658Y-11157984D02*
X8818039Y-11157984D01*
X8818039Y-11157984D02*
X8798991Y-11148460D01*
X8798991Y-11148460D02*
X8789467Y-11138936D01*
X9027563Y-10957984D02*
X9046610Y-10957984D01*
X9046610Y-10957984D02*
X9065658Y-10967508D01*
X9065658Y-10967508D02*
X9075182Y-10977031D01*
X9075182Y-10977031D02*
X9084705Y-10996079D01*
X9084705Y-10996079D02*
X9094229Y-11034174D01*
X9094229Y-11034174D02*
X9094229Y-11081793D01*
X9094229Y-11081793D02*
X9084705Y-11119889D01*
X9084705Y-11119889D02*
X9075182Y-11138936D01*
X9075182Y-11138936D02*
X9065658Y-11148460D01*
X9065658Y-11148460D02*
X9046610Y-11157984D01*
X9046610Y-11157984D02*
X9027563Y-11157984D01*
X9027563Y-11157984D02*
X9008515Y-11148460D01*
X9008515Y-11148460D02*
X8998991Y-11138936D01*
X8998991Y-11138936D02*
X8989467Y-11119889D01*
X8989467Y-11119889D02*
X8979944Y-11081793D01*
X8979944Y-11081793D02*
X8979944Y-11034174D01*
X8979944Y-11034174D02*
X8989467Y-10996079D01*
X8989467Y-10996079D02*
X8998991Y-10977031D01*
X8998991Y-10977031D02*
X9008515Y-10967508D01*
X9008515Y-10967508D02*
X9027563Y-10957984D01*
X9218039Y-10957984D02*
X9237086Y-10957984D01*
X9237086Y-10957984D02*
X9256134Y-10967508D01*
X9256134Y-10967508D02*
X9265658Y-10977031D01*
X9265658Y-10977031D02*
X9275182Y-10996079D01*
X9275182Y-10996079D02*
X9284705Y-11034174D01*
X9284705Y-11034174D02*
X9284705Y-11081793D01*
X9284705Y-11081793D02*
X9275182Y-11119889D01*
X9275182Y-11119889D02*
X9265658Y-11138936D01*
X9265658Y-11138936D02*
X9256134Y-11148460D01*
X9256134Y-11148460D02*
X9237086Y-11157984D01*
X9237086Y-11157984D02*
X9218039Y-11157984D01*
X9218039Y-11157984D02*
X9198991Y-11148460D01*
X9198991Y-11148460D02*
X9189467Y-11138936D01*
X9189467Y-11138936D02*
X9179944Y-11119889D01*
X9179944Y-11119889D02*
X9170420Y-11081793D01*
X9170420Y-11081793D02*
X9170420Y-11034174D01*
X9170420Y-11034174D02*
X9179944Y-10996079D01*
X9179944Y-10996079D02*
X9189467Y-10977031D01*
X9189467Y-10977031D02*
X9198991Y-10967508D01*
X9198991Y-10967508D02*
X9218039Y-10957984D01*
X9370420Y-11157984D02*
X9370420Y-11024650D01*
X9370420Y-11043698D02*
X9379944Y-11034174D01*
X9379944Y-11034174D02*
X9398991Y-11024650D01*
X9398991Y-11024650D02*
X9427563Y-11024650D01*
X9427563Y-11024650D02*
X9446610Y-11034174D01*
X9446610Y-11034174D02*
X9456134Y-11053222D01*
X9456134Y-11053222D02*
X9456134Y-11157984D01*
X9456134Y-11053222D02*
X9465658Y-11034174D01*
X9465658Y-11034174D02*
X9484705Y-11024650D01*
X9484705Y-11024650D02*
X9513277Y-11024650D01*
X9513277Y-11024650D02*
X9532325Y-11034174D01*
X9532325Y-11034174D02*
X9541848Y-11053222D01*
X9541848Y-11053222D02*
X9541848Y-11157984D01*
X9637086Y-11157984D02*
X9637086Y-11024650D01*
X9637086Y-11043698D02*
X9646610Y-11034174D01*
X9646610Y-11034174D02*
X9665658Y-11024650D01*
X9665658Y-11024650D02*
X9694229Y-11024650D01*
X9694229Y-11024650D02*
X9713277Y-11034174D01*
X9713277Y-11034174D02*
X9722801Y-11053222D01*
X9722801Y-11053222D02*
X9722801Y-11157984D01*
X9722801Y-11053222D02*
X9732325Y-11034174D01*
X9732325Y-11034174D02*
X9751372Y-11024650D01*
X9751372Y-11024650D02*
X9779944Y-11024650D01*
X9779944Y-11024650D02*
X9798991Y-11034174D01*
X9798991Y-11034174D02*
X9808515Y-11053222D01*
X9808515Y-11053222D02*
X9808515Y-11157984D01*
X10198991Y-10948460D02*
X10027563Y-11205603D01*
X10456134Y-10957984D02*
X10475182Y-10957984D01*
X10475182Y-10957984D02*
X10494229Y-10967508D01*
X10494229Y-10967508D02*
X10503753Y-10977031D01*
X10503753Y-10977031D02*
X10513277Y-10996079D01*
X10513277Y-10996079D02*
X10522801Y-11034174D01*
X10522801Y-11034174D02*
X10522801Y-11081793D01*
X10522801Y-11081793D02*
X10513277Y-11119889D01*
X10513277Y-11119889D02*
X10503753Y-11138936D01*
X10503753Y-11138936D02*
X10494229Y-11148460D01*
X10494229Y-11148460D02*
X10475182Y-11157984D01*
X10475182Y-11157984D02*
X10456134Y-11157984D01*
X10456134Y-11157984D02*
X10437087Y-11148460D01*
X10437087Y-11148460D02*
X10427563Y-11138936D01*
X10427563Y-11138936D02*
X10418039Y-11119889D01*
X10418039Y-11119889D02*
X10408515Y-11081793D01*
X10408515Y-11081793D02*
X10408515Y-11034174D01*
X10408515Y-11034174D02*
X10418039Y-10996079D01*
X10418039Y-10996079D02*
X10427563Y-10977031D01*
X10427563Y-10977031D02*
X10437087Y-10967508D01*
X10437087Y-10967508D02*
X10456134Y-10957984D01*
X10608515Y-11138936D02*
X10618039Y-11148460D01*
X10618039Y-11148460D02*
X10608515Y-11157984D01*
X10608515Y-11157984D02*
X10598991Y-11148460D01*
X10598991Y-11148460D02*
X10608515Y-11138936D01*
X10608515Y-11138936D02*
X10608515Y-11157984D01*
X10741848Y-10957984D02*
X10760896Y-10957984D01*
X10760896Y-10957984D02*
X10779944Y-10967508D01*
X10779944Y-10967508D02*
X10789468Y-10977031D01*
X10789468Y-10977031D02*
X10798991Y-10996079D01*
X10798991Y-10996079D02*
X10808515Y-11034174D01*
X10808515Y-11034174D02*
X10808515Y-11081793D01*
X10808515Y-11081793D02*
X10798991Y-11119889D01*
X10798991Y-11119889D02*
X10789468Y-11138936D01*
X10789468Y-11138936D02*
X10779944Y-11148460D01*
X10779944Y-11148460D02*
X10760896Y-11157984D01*
X10760896Y-11157984D02*
X10741848Y-11157984D01*
X10741848Y-11157984D02*
X10722801Y-11148460D01*
X10722801Y-11148460D02*
X10713277Y-11138936D01*
X10713277Y-11138936D02*
X10703753Y-11119889D01*
X10703753Y-11119889D02*
X10694229Y-11081793D01*
X10694229Y-11081793D02*
X10694229Y-11034174D01*
X10694229Y-11034174D02*
X10703753Y-10996079D01*
X10703753Y-10996079D02*
X10713277Y-10977031D01*
X10713277Y-10977031D02*
X10722801Y-10967508D01*
X10722801Y-10967508D02*
X10741848Y-10957984D01*
X10903753Y-11157984D02*
X10941848Y-11157984D01*
X10941848Y-11157984D02*
X10960896Y-11148460D01*
X10960896Y-11148460D02*
X10970420Y-11138936D01*
X10970420Y-11138936D02*
X10989468Y-11110365D01*
X10989468Y-11110365D02*
X10998991Y-11072270D01*
X10998991Y-11072270D02*
X10998991Y-10996079D01*
X10998991Y-10996079D02*
X10989468Y-10977031D01*
X10989468Y-10977031D02*
X10979944Y-10967508D01*
X10979944Y-10967508D02*
X10960896Y-10957984D01*
X10960896Y-10957984D02*
X10922801Y-10957984D01*
X10922801Y-10957984D02*
X10903753Y-10967508D01*
X10903753Y-10967508D02*
X10894229Y-10977031D01*
X10894229Y-10977031D02*
X10884706Y-10996079D01*
X10884706Y-10996079D02*
X10884706Y-11043698D01*
X10884706Y-11043698D02*
X10894229Y-11062746D01*
X10894229Y-11062746D02*
X10903753Y-11072270D01*
X10903753Y-11072270D02*
X10922801Y-11081793D01*
X10922801Y-11081793D02*
X10960896Y-11081793D01*
X10960896Y-11081793D02*
X10979944Y-11072270D01*
X10979944Y-11072270D02*
X10989468Y-11062746D01*
X10989468Y-11062746D02*
X10998991Y-11043698D01*
X11113277Y-11043698D02*
X11094229Y-11034174D01*
X11094229Y-11034174D02*
X11084706Y-11024650D01*
X11084706Y-11024650D02*
X11075182Y-11005603D01*
X11075182Y-11005603D02*
X11075182Y-10996079D01*
X11075182Y-10996079D02*
X11084706Y-10977031D01*
X11084706Y-10977031D02*
X11094229Y-10967508D01*
X11094229Y-10967508D02*
X11113277Y-10957984D01*
X11113277Y-10957984D02*
X11151372Y-10957984D01*
X11151372Y-10957984D02*
X11170420Y-10967508D01*
X11170420Y-10967508D02*
X11179944Y-10977031D01*
X11179944Y-10977031D02*
X11189467Y-10996079D01*
X11189467Y-10996079D02*
X11189467Y-11005603D01*
X11189467Y-11005603D02*
X11179944Y-11024650D01*
X11179944Y-11024650D02*
X11170420Y-11034174D01*
X11170420Y-11034174D02*
X11151372Y-11043698D01*
X11151372Y-11043698D02*
X11113277Y-11043698D01*
X11113277Y-11043698D02*
X11094229Y-11053222D01*
X11094229Y-11053222D02*
X11084706Y-11062746D01*
X11084706Y-11062746D02*
X11075182Y-11081793D01*
X11075182Y-11081793D02*
X11075182Y-11119889D01*
X11075182Y-11119889D02*
X11084706Y-11138936D01*
X11084706Y-11138936D02*
X11094229Y-11148460D01*
X11094229Y-11148460D02*
X11113277Y-11157984D01*
X11113277Y-11157984D02*
X11151372Y-11157984D01*
X11151372Y-11157984D02*
X11170420Y-11148460D01*
X11170420Y-11148460D02*
X11179944Y-11138936D01*
X11179944Y-11138936D02*
X11189467Y-11119889D01*
X11189467Y-11119889D02*
X11189467Y-11081793D01*
X11189467Y-11081793D02*
X11179944Y-11062746D01*
X11179944Y-11062746D02*
X11170420Y-11053222D01*
X11170420Y-11053222D02*
X11151372Y-11043698D01*
X11360896Y-11024650D02*
X11360896Y-11157984D01*
X11313277Y-10948460D02*
X11265658Y-11091317D01*
X11265658Y-11091317D02*
X11389467Y-11091317D01*
X11456134Y-10957984D02*
X11456134Y-10996079D01*
X11532325Y-10957984D02*
X11532325Y-10996079D01*
X11827563Y-11234174D02*
X11818039Y-11224650D01*
X11818039Y-11224650D02*
X11798991Y-11196079D01*
X11798991Y-11196079D02*
X11789468Y-11177031D01*
X11789468Y-11177031D02*
X11779944Y-11148460D01*
X11779944Y-11148460D02*
X11770420Y-11100841D01*
X11770420Y-11100841D02*
X11770420Y-11062746D01*
X11770420Y-11062746D02*
X11779944Y-11015127D01*
X11779944Y-11015127D02*
X11789468Y-10986555D01*
X11789468Y-10986555D02*
X11798991Y-10967508D01*
X11798991Y-10967508D02*
X11818039Y-10938936D01*
X11818039Y-10938936D02*
X11827563Y-10929412D01*
X11989468Y-11024650D02*
X11989468Y-11157984D01*
X11941848Y-10948460D02*
X11894229Y-11091317D01*
X11894229Y-11091317D02*
X12018039Y-11091317D01*
X12246610Y-11157984D02*
X12246610Y-10957984D01*
X12332325Y-11157984D02*
X12332325Y-11053222D01*
X12332325Y-11053222D02*
X12322801Y-11034174D01*
X12322801Y-11034174D02*
X12303753Y-11024650D01*
X12303753Y-11024650D02*
X12275182Y-11024650D01*
X12275182Y-11024650D02*
X12256134Y-11034174D01*
X12256134Y-11034174D02*
X12246610Y-11043698D01*
X12456134Y-11157984D02*
X12437087Y-11148460D01*
X12437087Y-11148460D02*
X12427563Y-11138936D01*
X12427563Y-11138936D02*
X12418039Y-11119889D01*
X12418039Y-11119889D02*
X12418039Y-11062746D01*
X12418039Y-11062746D02*
X12427563Y-11043698D01*
X12427563Y-11043698D02*
X12437087Y-11034174D01*
X12437087Y-11034174D02*
X12456134Y-11024650D01*
X12456134Y-11024650D02*
X12484706Y-11024650D01*
X12484706Y-11024650D02*
X12503753Y-11034174D01*
X12503753Y-11034174D02*
X12513277Y-11043698D01*
X12513277Y-11043698D02*
X12522801Y-11062746D01*
X12522801Y-11062746D02*
X12522801Y-11119889D01*
X12522801Y-11119889D02*
X12513277Y-11138936D01*
X12513277Y-11138936D02*
X12503753Y-11148460D01*
X12503753Y-11148460D02*
X12484706Y-11157984D01*
X12484706Y-11157984D02*
X12456134Y-11157984D01*
X12637087Y-11157984D02*
X12618039Y-11148460D01*
X12618039Y-11148460D02*
X12608515Y-11129412D01*
X12608515Y-11129412D02*
X12608515Y-10957984D01*
X12789468Y-11148460D02*
X12770420Y-11157984D01*
X12770420Y-11157984D02*
X12732325Y-11157984D01*
X12732325Y-11157984D02*
X12713277Y-11148460D01*
X12713277Y-11148460D02*
X12703753Y-11129412D01*
X12703753Y-11129412D02*
X12703753Y-11053222D01*
X12703753Y-11053222D02*
X12713277Y-11034174D01*
X12713277Y-11034174D02*
X12732325Y-11024650D01*
X12732325Y-11024650D02*
X12770420Y-11024650D01*
X12770420Y-11024650D02*
X12789468Y-11034174D01*
X12789468Y-11034174D02*
X12798991Y-11053222D01*
X12798991Y-11053222D02*
X12798991Y-11072270D01*
X12798991Y-11072270D02*
X12703753Y-11091317D01*
X12875182Y-11148460D02*
X12894230Y-11157984D01*
X12894230Y-11157984D02*
X12932325Y-11157984D01*
X12932325Y-11157984D02*
X12951372Y-11148460D01*
X12951372Y-11148460D02*
X12960896Y-11129412D01*
X12960896Y-11129412D02*
X12960896Y-11119889D01*
X12960896Y-11119889D02*
X12951372Y-11100841D01*
X12951372Y-11100841D02*
X12932325Y-11091317D01*
X12932325Y-11091317D02*
X12903753Y-11091317D01*
X12903753Y-11091317D02*
X12884706Y-11081793D01*
X12884706Y-11081793D02*
X12875182Y-11062746D01*
X12875182Y-11062746D02*
X12875182Y-11053222D01*
X12875182Y-11053222D02*
X12884706Y-11034174D01*
X12884706Y-11034174D02*
X12903753Y-11024650D01*
X12903753Y-11024650D02*
X12932325Y-11024650D01*
X12932325Y-11024650D02*
X12951372Y-11034174D01*
X13027563Y-11234174D02*
X13037087Y-11224650D01*
X13037087Y-11224650D02*
X13056134Y-11196079D01*
X13056134Y-11196079D02*
X13065658Y-11177031D01*
X13065658Y-11177031D02*
X13075182Y-11148460D01*
X13075182Y-11148460D02*
X13084706Y-11100841D01*
X13084706Y-11100841D02*
X13084706Y-11062746D01*
X13084706Y-11062746D02*
X13075182Y-11015127D01*
X13075182Y-11015127D02*
X13065658Y-10986555D01*
X13065658Y-10986555D02*
X13056134Y-10967508D01*
X13056134Y-10967508D02*
X13037087Y-10938936D01*
X13037087Y-10938936D02*
X13027563Y-10929412D01*
X13389468Y-11234174D02*
X13379944Y-11224650D01*
X13379944Y-11224650D02*
X13360896Y-11196079D01*
X13360896Y-11196079D02*
X13351372Y-11177031D01*
X13351372Y-11177031D02*
X13341849Y-11148460D01*
X13341849Y-11148460D02*
X13332325Y-11100841D01*
X13332325Y-11100841D02*
X13332325Y-11062746D01*
X13332325Y-11062746D02*
X13341849Y-11015127D01*
X13341849Y-11015127D02*
X13351372Y-10986555D01*
X13351372Y-10986555D02*
X13360896Y-10967508D01*
X13360896Y-10967508D02*
X13379944Y-10938936D01*
X13379944Y-10938936D02*
X13389468Y-10929412D01*
X13465658Y-11024650D02*
X13465658Y-11157984D01*
X13465658Y-11043698D02*
X13475182Y-11034174D01*
X13475182Y-11034174D02*
X13494230Y-11024650D01*
X13494230Y-11024650D02*
X13522801Y-11024650D01*
X13522801Y-11024650D02*
X13541849Y-11034174D01*
X13541849Y-11034174D02*
X13551372Y-11053222D01*
X13551372Y-11053222D02*
X13551372Y-11157984D01*
X13675182Y-11157984D02*
X13656134Y-11148460D01*
X13656134Y-11148460D02*
X13646611Y-11138936D01*
X13646611Y-11138936D02*
X13637087Y-11119889D01*
X13637087Y-11119889D02*
X13637087Y-11062746D01*
X13637087Y-11062746D02*
X13646611Y-11043698D01*
X13646611Y-11043698D02*
X13656134Y-11034174D01*
X13656134Y-11034174D02*
X13675182Y-11024650D01*
X13675182Y-11024650D02*
X13703753Y-11024650D01*
X13703753Y-11024650D02*
X13722801Y-11034174D01*
X13722801Y-11034174D02*
X13732325Y-11043698D01*
X13732325Y-11043698D02*
X13741849Y-11062746D01*
X13741849Y-11062746D02*
X13741849Y-11119889D01*
X13741849Y-11119889D02*
X13732325Y-11138936D01*
X13732325Y-11138936D02*
X13722801Y-11148460D01*
X13722801Y-11148460D02*
X13703753Y-11157984D01*
X13703753Y-11157984D02*
X13675182Y-11157984D01*
X13798992Y-11024650D02*
X13875182Y-11024650D01*
X13827563Y-10957984D02*
X13827563Y-11129412D01*
X13827563Y-11129412D02*
X13837087Y-11148460D01*
X13837087Y-11148460D02*
X13856134Y-11157984D01*
X13856134Y-11157984D02*
X13875182Y-11157984D01*
X14094230Y-11024650D02*
X14094230Y-11224650D01*
X14094230Y-11034174D02*
X14113277Y-11024650D01*
X14113277Y-11024650D02*
X14151373Y-11024650D01*
X14151373Y-11024650D02*
X14170420Y-11034174D01*
X14170420Y-11034174D02*
X14179944Y-11043698D01*
X14179944Y-11043698D02*
X14189468Y-11062746D01*
X14189468Y-11062746D02*
X14189468Y-11119889D01*
X14189468Y-11119889D02*
X14179944Y-11138936D01*
X14179944Y-11138936D02*
X14170420Y-11148460D01*
X14170420Y-11148460D02*
X14151373Y-11157984D01*
X14151373Y-11157984D02*
X14113277Y-11157984D01*
X14113277Y-11157984D02*
X14094230Y-11148460D01*
X14303753Y-11157984D02*
X14284706Y-11148460D01*
X14284706Y-11148460D02*
X14275182Y-11129412D01*
X14275182Y-11129412D02*
X14275182Y-10957984D01*
X14465658Y-11157984D02*
X14465658Y-11053222D01*
X14465658Y-11053222D02*
X14456134Y-11034174D01*
X14456134Y-11034174D02*
X14437087Y-11024650D01*
X14437087Y-11024650D02*
X14398992Y-11024650D01*
X14398992Y-11024650D02*
X14379944Y-11034174D01*
X14465658Y-11148460D02*
X14446611Y-11157984D01*
X14446611Y-11157984D02*
X14398992Y-11157984D01*
X14398992Y-11157984D02*
X14379944Y-11148460D01*
X14379944Y-11148460D02*
X14370420Y-11129412D01*
X14370420Y-11129412D02*
X14370420Y-11110365D01*
X14370420Y-11110365D02*
X14379944Y-11091317D01*
X14379944Y-11091317D02*
X14398992Y-11081793D01*
X14398992Y-11081793D02*
X14446611Y-11081793D01*
X14446611Y-11081793D02*
X14465658Y-11072270D01*
X14532325Y-11024650D02*
X14608515Y-11024650D01*
X14560896Y-10957984D02*
X14560896Y-11129412D01*
X14560896Y-11129412D02*
X14570420Y-11148460D01*
X14570420Y-11148460D02*
X14589468Y-11157984D01*
X14589468Y-11157984D02*
X14608515Y-11157984D01*
X14751373Y-11148460D02*
X14732325Y-11157984D01*
X14732325Y-11157984D02*
X14694230Y-11157984D01*
X14694230Y-11157984D02*
X14675182Y-11148460D01*
X14675182Y-11148460D02*
X14665658Y-11129412D01*
X14665658Y-11129412D02*
X14665658Y-11053222D01*
X14665658Y-11053222D02*
X14675182Y-11034174D01*
X14675182Y-11034174D02*
X14694230Y-11024650D01*
X14694230Y-11024650D02*
X14732325Y-11024650D01*
X14732325Y-11024650D02*
X14751373Y-11034174D01*
X14751373Y-11034174D02*
X14760896Y-11053222D01*
X14760896Y-11053222D02*
X14760896Y-11072270D01*
X14760896Y-11072270D02*
X14665658Y-11091317D01*
X14932325Y-11157984D02*
X14932325Y-10957984D01*
X14932325Y-11148460D02*
X14913277Y-11157984D01*
X14913277Y-11157984D02*
X14875182Y-11157984D01*
X14875182Y-11157984D02*
X14856134Y-11148460D01*
X14856134Y-11148460D02*
X14846611Y-11138936D01*
X14846611Y-11138936D02*
X14837087Y-11119889D01*
X14837087Y-11119889D02*
X14837087Y-11062746D01*
X14837087Y-11062746D02*
X14846611Y-11043698D01*
X14846611Y-11043698D02*
X14856134Y-11034174D01*
X14856134Y-11034174D02*
X14875182Y-11024650D01*
X14875182Y-11024650D02*
X14913277Y-11024650D01*
X14913277Y-11024650D02*
X14932325Y-11034174D01*
X15008515Y-11234174D02*
X15018039Y-11224650D01*
X15018039Y-11224650D02*
X15037087Y-11196079D01*
X15037087Y-11196079D02*
X15046611Y-11177031D01*
X15046611Y-11177031D02*
X15056134Y-11148460D01*
X15056134Y-11148460D02*
X15065658Y-11100841D01*
X15065658Y-11100841D02*
X15065658Y-11062746D01*
X15065658Y-11062746D02*
X15056134Y-11015127D01*
X15056134Y-11015127D02*
X15046611Y-10986555D01*
X15046611Y-10986555D02*
X15037087Y-10967508D01*
X15037087Y-10967508D02*
X15018039Y-10938936D01*
X15018039Y-10938936D02*
X15008515Y-10929412D01*
M02*
