%TF.GenerationSoftware,KiCad,Pcbnew,9.0.4*%
%TF.CreationDate,2026-03-13T12:35:10-04:00*%
%TF.ProjectId,Ear2Ink_PCB_Design,45617232-496e-46b5-9f50-43425f446573,rev?*%
%TF.SameCoordinates,Original*%
%TF.FileFunction,Soldermask,Bot*%
%TF.FilePolarity,Negative*%
%FSLAX46Y46*%
G04 Gerber Fmt 4.6, Leading zero omitted, Abs format (unit mm)*
G04 Created by KiCad (PCBNEW 9.0.4) date 2026-03-13 12:35:10*
%MOMM*%
%LPD*%
G01*
G04 APERTURE LIST*
G04 Aperture macros list*
%AMRoundRect*
0 Rectangle with rounded corners*
0 $1 Rounding radius*
0 $2 $3 $4 $5 $6 $7 $8 $9 X,Y pos of 4 corners*
0 Add a 4 corners polygon primitive as box body*
4,1,4,$2,$3,$4,$5,$6,$7,$8,$9,$2,$3,0*
0 Add four circle primitives for the rounded corners*
1,1,$1+$1,$2,$3*
1,1,$1+$1,$4,$5*
1,1,$1+$1,$6,$7*
1,1,$1+$1,$8,$9*
0 Add four rect primitives between the rounded corners*
20,1,$1+$1,$2,$3,$4,$5,0*
20,1,$1+$1,$4,$5,$6,$7,0*
20,1,$1+$1,$6,$7,$8,$9,0*
20,1,$1+$1,$8,$9,$2,$3,0*%
%AMFreePoly0*
4,1,64,0.031746,0.146090,0.079590,0.146090,0.235711,0.115036,0.382774,0.054120,0.515127,-0.034316,0.627684,-0.146873,0.716120,-0.279226,0.777036,-0.426289,0.808090,-0.582410,0.808090,-0.741590,0.777036,-0.897711,0.716120,-1.044774,0.627684,-1.177127,0.515127,-1.289684,0.382774,-1.378120,0.235711,-1.439036,0.079590,-1.470090,-0.079590,-1.470090,-0.235711,-1.439036,-0.382774,-1.378120,
-0.515127,-1.289684,-0.627684,-1.177127,-0.716120,-1.044774,-0.777036,-0.897711,-0.808090,-0.741590,-0.808090,-0.594594,-0.512000,-0.594594,-0.512000,-0.729406,-0.477108,-0.859625,-0.409702,-0.976375,-0.314375,-1.071702,-0.197625,-1.139108,-0.067406,-1.174000,0.067406,-1.174000,0.197625,-1.139108,0.314375,-1.071702,0.409702,-0.976375,0.477108,-0.859625,0.512000,-0.729406,0.512000,-0.594594,
0.477108,-0.464375,0.409702,-0.347625,0.314375,-0.252298,0.197625,-0.184892,0.067406,-0.150000,-0.067406,-0.150000,-0.197625,-0.184892,-0.314375,-0.252298,-0.409702,-0.347625,-0.477108,-0.464375,-0.512000,-0.594594,-0.808090,-0.594594,-0.808090,-0.582410,-0.777036,-0.426289,-0.716120,-0.279226,-0.627684,-0.146873,-0.515127,-0.034316,-0.382774,0.054120,-0.235711,0.115036,-0.079590,0.146090,
-0.031746,0.146090,-0.029264,0.147118,0.029264,0.147118,0.031746,0.146090,0.031746,0.146090,$1*%
G04 Aperture macros list end*
%ADD10R,1.700000X1.700000*%
%ADD11C,1.700000*%
%ADD12RoundRect,0.102000X0.900000X-0.900000X0.900000X0.900000X-0.900000X0.900000X-0.900000X-0.900000X0*%
%ADD13C,2.004000*%
%ADD14C,2.500000*%
%ADD15RoundRect,0.237500X0.237500X-0.250000X0.237500X0.250000X-0.237500X0.250000X-0.237500X-0.250000X0*%
%ADD16C,0.500000*%
%ADD17RoundRect,0.130500X-0.169500X-0.130500X0.169500X-0.130500X0.169500X0.130500X-0.169500X0.130500X0*%
%ADD18FreePoly0,270.000000*%
%ADD19RoundRect,0.075000X0.275000X-0.390000X0.275000X0.390000X-0.275000X0.390000X-0.275000X-0.390000X0*%
%ADD20RoundRect,0.075000X0.275000X-0.075000X0.275000X0.075000X-0.275000X0.075000X-0.275000X-0.075000X0*%
%ADD21RoundRect,0.237500X-0.008839X-0.344715X0.344715X0.008839X0.008839X0.344715X-0.344715X-0.008839X0*%
%ADD22RoundRect,0.075000X0.390000X0.275000X-0.390000X0.275000X-0.390000X-0.275000X0.390000X-0.275000X0*%
%ADD23RoundRect,0.075000X0.075000X0.275000X-0.075000X0.275000X-0.075000X-0.275000X0.075000X-0.275000X0*%
%ADD24RoundRect,0.075000X-0.390000X-0.275000X0.390000X-0.275000X0.390000X0.275000X-0.390000X0.275000X0*%
%ADD25RoundRect,0.075000X-0.075000X-0.275000X0.075000X-0.275000X0.075000X0.275000X-0.075000X0.275000X0*%
%ADD26RoundRect,0.237500X0.237500X-0.300000X0.237500X0.300000X-0.237500X0.300000X-0.237500X-0.300000X0*%
%ADD27RoundRect,0.250000X0.475000X-0.337500X0.475000X0.337500X-0.475000X0.337500X-0.475000X-0.337500X0*%
%ADD28RoundRect,0.102000X0.700000X0.950000X-0.700000X0.950000X-0.700000X-0.950000X0.700000X-0.950000X0*%
%ADD29RoundRect,0.102000X0.600000X0.700000X-0.600000X0.700000X-0.600000X-0.700000X0.600000X-0.700000X0*%
%ADD30RoundRect,0.102000X0.650000X0.700000X-0.650000X0.700000X-0.650000X-0.700000X0.650000X-0.700000X0*%
%ADD31RoundRect,0.102000X0.400000X0.750000X-0.400000X0.750000X-0.400000X-0.750000X0.400000X-0.750000X0*%
%ADD32RoundRect,0.102000X0.500000X0.520000X-0.500000X0.520000X-0.500000X-0.520000X0.500000X-0.520000X0*%
%ADD33RoundRect,0.237500X0.250000X0.237500X-0.250000X0.237500X-0.250000X-0.237500X0.250000X-0.237500X0*%
%ADD34RoundRect,0.075000X-0.275000X0.390000X-0.275000X-0.390000X0.275000X-0.390000X0.275000X0.390000X0*%
%ADD35RoundRect,0.075000X-0.275000X0.075000X-0.275000X-0.075000X0.275000X-0.075000X0.275000X0.075000X0*%
%ADD36C,0.700000*%
G04 APERTURE END LIST*
D10*
%TO.C,J1*%
X86350000Y-54170000D03*
D11*
X86350000Y-56710000D03*
X86350000Y-59250000D03*
X86350000Y-61790000D03*
X86350000Y-64330000D03*
X86350000Y-66870000D03*
X86350000Y-69410000D03*
X86350000Y-71950000D03*
X86350000Y-74490000D03*
X86350000Y-77030000D03*
X86350000Y-79570000D03*
X86350000Y-82110000D03*
X86350000Y-84650000D03*
X86350000Y-87190000D03*
X86350000Y-89730000D03*
X86350000Y-92270000D03*
%TD*%
D12*
%TO.C,P1*%
X178700000Y-34550000D03*
D13*
X178700000Y-31050000D03*
%TD*%
D14*
%TO.C,H4*%
X185420000Y-95250000D03*
%TD*%
D10*
%TO.C,J8*%
X90940000Y-54170000D03*
D11*
X90940000Y-56710000D03*
X90940000Y-59250000D03*
X90940000Y-61790000D03*
X90940000Y-64330000D03*
X90940000Y-66870000D03*
X90940000Y-69410000D03*
X90940000Y-71950000D03*
X90940000Y-74490000D03*
X90940000Y-77030000D03*
X90940000Y-79570000D03*
X90940000Y-82110000D03*
X90940000Y-84650000D03*
X90940000Y-87190000D03*
X90940000Y-89730000D03*
X90940000Y-92270000D03*
%TD*%
D10*
%TO.C,J3*%
X186855000Y-62495000D03*
D11*
X186855000Y-59955000D03*
X186855000Y-57415000D03*
X186855000Y-54875000D03*
X186855000Y-52335000D03*
X186855000Y-49795000D03*
X186855000Y-47255000D03*
X186855000Y-44715000D03*
%TD*%
D10*
%TO.C,J6*%
X169975000Y-71570000D03*
D11*
X169975000Y-74110000D03*
X169975000Y-76650000D03*
X169975000Y-79190000D03*
%TD*%
D14*
%TO.C,H1*%
X185420000Y-25400000D03*
%TD*%
D10*
%TO.C,J2*%
X182065000Y-44660000D03*
D11*
X182065000Y-47200000D03*
X182065000Y-49740000D03*
X182065000Y-52280000D03*
X182065000Y-54820000D03*
X182065000Y-57360000D03*
X182065000Y-59900000D03*
X182065000Y-62440000D03*
%TD*%
D10*
%TO.C,J5*%
X128650000Y-98250000D03*
D11*
X128650000Y-95710000D03*
X128650000Y-93170000D03*
X128650000Y-90630000D03*
X128650000Y-88090000D03*
X128650000Y-85550000D03*
%TD*%
D14*
%TO.C,H2*%
X88900000Y-25400000D03*
%TD*%
%TO.C,H3*%
X87125000Y-97675000D03*
%TD*%
D15*
%TO.C,R21*%
X137775000Y-60795249D03*
X137775000Y-58970249D03*
%TD*%
%TO.C,R3*%
X139725000Y-60807749D03*
X139725000Y-58982749D03*
%TD*%
D16*
%TO.C,MK1*%
X139724998Y-53793249D03*
D17*
X138824998Y-55867249D03*
X138824998Y-55045249D03*
D18*
X140386998Y-53793249D03*
D17*
X140624998Y-55045249D03*
X140624998Y-55867249D03*
X139724998Y-55867249D03*
%TD*%
D19*
%TO.C,D9*%
X179450000Y-49725000D03*
D20*
X179450000Y-48840000D03*
%TD*%
D21*
%TO.C,R22*%
X139404765Y-79545235D03*
X140695235Y-78254765D03*
%TD*%
D22*
%TO.C,D13*%
X179325000Y-64200000D03*
D23*
X178440000Y-64200000D03*
%TD*%
D24*
%TO.C,D14*%
X179675000Y-67450000D03*
D25*
X180560000Y-67450000D03*
%TD*%
D26*
%TO.C,C14*%
X136950000Y-54875000D03*
X136950000Y-53150000D03*
%TD*%
D27*
%TO.C,C15*%
X134625000Y-54900000D03*
X134625000Y-52825000D03*
%TD*%
D28*
%TO.C,J4*%
X151250000Y-98300000D03*
X138100000Y-99300000D03*
D29*
X149710000Y-85150000D03*
D30*
X143960000Y-85150000D03*
D31*
X142770000Y-96010000D03*
X143870000Y-95610000D03*
X144970000Y-96010000D03*
X146070000Y-96210000D03*
X147170000Y-96010000D03*
X148270000Y-96210000D03*
X149370000Y-96010000D03*
X150470000Y-96010000D03*
D32*
X148260000Y-84780000D03*
%TD*%
D19*
%TO.C,D7*%
X177550000Y-44750000D03*
D20*
X177550000Y-43865000D03*
%TD*%
D33*
%TO.C,R20*%
X144299498Y-55018249D03*
X142474498Y-55018249D03*
%TD*%
D19*
%TO.C,D8*%
X178525000Y-47325000D03*
D20*
X178525000Y-46440000D03*
%TD*%
D19*
%TO.C,D10*%
X178700000Y-55910000D03*
D20*
X178700000Y-55025000D03*
%TD*%
D22*
%TO.C,D12*%
X178400000Y-61650000D03*
D23*
X177515000Y-61650000D03*
%TD*%
D34*
%TO.C,D11*%
X176900000Y-57000000D03*
D35*
X176900000Y-57885000D03*
%TD*%
D36*
X138000000Y-82550000D03*
X136600000Y-84050000D03*
X135875000Y-81675000D03*
M02*
